ply
format ascii 1.0
comment Created by Blender 2.79 (sub 0) - www.blender.org, source file: ''
element vertex 118
property float x
property float y
property float z
property float nx
property float ny
property float nz
property uchar red
property uchar green
property uchar blue
element face 48
property list uchar uint vertex_indices
end_header
0.000000 0.002500 -0.000000 0.156558 0.912487 0.377965 176 179 174
-0.000000 0.001768 0.001768 0.156558 0.912487 0.377965 200 202 187
0.001250 0.001768 0.001250 0.156558 0.912487 0.377965 180 183 176
-0.000000 -0.001768 0.001768 0.357407 -0.357407 0.862856 177 180 174
0.001768 0.000000 0.001768 0.357407 -0.357407 0.862856 176 179 174
0.000000 0.000000 0.002500 0.357407 -0.357407 0.862856 200 203 188
0.000000 0.000000 0.002500 0.357407 0.357407 0.862856 178 181 175
0.001250 0.001768 0.001250 0.357407 0.357407 0.862856 180 183 176
-0.000000 0.001768 0.001768 0.357407 0.357407 0.862856 200 202 187
-0.000000 -0.001768 0.001768 0.156558 -0.912487 0.377964 215 219 195
-0.000000 -0.002500 -0.000000 0.156558 -0.912487 0.377964 226 230 201
0.001250 -0.001768 0.001250 0.156558 -0.912487 0.377964 226 230 201
0.000000 0.002500 -0.000000 0.377964 0.912487 0.156558 176 179 174
0.001250 0.001768 0.001250 0.377964 0.912487 0.156558 180 183 176
0.001768 0.001768 -0.000000 0.377964 0.912487 0.156558 176 179 174
0.001768 0.000000 0.001768 0.862856 -0.357407 0.357407 176 179 174
0.001768 -0.001768 -0.000000 0.862856 -0.357407 0.357407 176 179 174
0.002500 0.000000 -0.000000 0.862856 -0.357407 0.357407 176 179 174
0.001768 0.000000 0.001768 0.862856 0.357407 0.357407 176 179 174
0.001768 0.001768 -0.000000 0.862856 0.357407 0.357407 176 179 174
0.001250 0.001768 0.001250 0.862856 0.357407 0.357407 180 183 176
0.001250 -0.001768 0.001250 0.377964 -0.912487 0.156558 193 196 183
-0.000000 -0.002500 -0.000000 0.377964 -0.912487 0.156558 176 179 174
0.001768 -0.001768 -0.000000 0.377964 -0.912487 0.156558 176 179 174
0.000000 0.002500 -0.000000 0.377964 0.912487 -0.156558 176 179 174
0.001768 0.001768 -0.000000 0.377964 0.912487 -0.156558 176 179 174
0.001250 0.001768 -0.001250 0.377964 0.912487 -0.156558 176 179 174
0.001768 -0.001768 -0.000000 0.862856 -0.357407 -0.357407 176 179 174
0.001768 0.000000 -0.001768 0.862856 -0.357407 -0.357407 226 230 201
0.002500 0.000000 -0.000000 0.862856 -0.357407 -0.357407 176 179 174
0.001768 0.001768 -0.000000 0.862856 0.357407 -0.357407 176 179 174
0.001768 0.000000 -0.001768 0.862856 0.357407 -0.357407 201 205 187
0.001250 0.001768 -0.001250 0.862856 0.357407 -0.357407 176 179 174
0.001768 -0.001768 -0.000000 0.377964 -0.912487 -0.156558 176 179 174
-0.000000 -0.002500 -0.000000 0.377964 -0.912487 -0.156558 176 179 174
0.001250 -0.001768 -0.001250 0.377964 -0.912487 -0.156558 177 180 175
0.000000 0.002500 -0.000000 0.156558 0.912487 -0.377964 176 179 174
0.001250 0.001768 -0.001250 0.156558 0.912487 -0.377964 176 179 174
-0.000000 0.001768 -0.001768 0.156558 0.912487 -0.377964 187 190 179
0.001250 -0.001768 -0.001250 0.357407 -0.357407 -0.862856 176 179 174
-0.000000 0.000000 -0.002500 0.357407 -0.357407 -0.862856 179 182 176
0.001768 0.000000 -0.001768 0.357407 -0.357407 -0.862856 201 205 187
0.001768 0.000000 -0.001768 0.357407 0.357407 -0.862856 201 205 187
-0.000000 0.001768 -0.001768 0.357407 0.357407 -0.862856 187 190 179
0.001250 0.001768 -0.001250 0.357407 0.357407 -0.862856 176 179 174
0.001250 -0.001768 -0.001250 0.156558 -0.912487 -0.377965 177 180 175
-0.000000 -0.002500 -0.000000 0.156558 -0.912487 -0.377965 176 179 174
-0.000000 -0.001768 -0.001768 0.156558 -0.912487 -0.377965 220 224 197
-0.000000 -0.001768 -0.001768 -0.156558 -0.912487 -0.377965 226 230 201
-0.000000 -0.002500 -0.000000 -0.156558 -0.912487 -0.377965 226 230 201
-0.001250 -0.001768 -0.001250 -0.156558 -0.912487 -0.377965 226 230 201
0.000000 0.002500 -0.000000 -0.156558 0.912487 -0.377964 176 179 174
-0.000000 0.001768 -0.001768 -0.156558 0.912487 -0.377964 187 190 179
-0.001250 0.001768 -0.001250 -0.156558 0.912487 -0.377964 176 179 174
-0.000000 -0.001768 -0.001768 -0.357407 -0.357407 -0.862856 221 225 198
-0.001768 0.000000 -0.001768 -0.357407 -0.357407 -0.862856 176 179 174
-0.000000 0.000000 -0.002500 -0.357407 -0.357407 -0.862856 179 182 176
-0.000000 0.001768 -0.001768 -0.357407 0.357407 -0.862856 187 190 179
-0.001768 0.000000 -0.001768 -0.357407 0.357407 -0.862856 176 179 174
-0.001250 0.001768 -0.001250 -0.357407 0.357407 -0.862856 176 179 174
-0.001768 0.000000 -0.001768 -0.862856 0.357407 -0.357407 176 179 174
-0.001768 0.001768 -0.000000 -0.862856 0.357407 -0.357407 218 222 197
-0.001250 0.001768 -0.001250 -0.862856 0.357407 -0.357407 176 179 174
-0.001250 -0.001768 -0.001250 -0.377964 -0.912487 -0.156558 226 230 201
-0.000000 -0.002500 -0.000000 -0.377964 -0.912487 -0.156558 226 230 201
-0.001768 -0.001768 -0.000000 -0.377964 -0.912487 -0.156558 181 184 177
0.000000 0.002500 -0.000000 -0.377964 0.912487 -0.156558 176 179 174
-0.001250 0.001768 -0.001250 -0.377964 0.912487 -0.156558 176 179 174
-0.001768 0.001768 -0.000000 -0.377964 0.912487 -0.156558 194 197 184
-0.001250 -0.001768 -0.001250 -0.862856 -0.357407 -0.357407 176 179 174
-0.002500 0.000000 -0.000000 -0.862856 -0.357407 -0.357407 179 182 176
-0.001768 0.000000 -0.001768 -0.862856 -0.357407 -0.357407 176 179 174
-0.002500 0.000000 -0.000000 -0.862856 0.357407 0.357407 179 182 176
-0.001250 0.001768 0.001250 -0.862856 0.357407 0.357407 226 230 201
-0.001768 0.001768 -0.000000 -0.862856 0.357407 0.357407 218 222 197
-0.001768 -0.001768 -0.000000 -0.377964 -0.912487 0.156558 181 184 177
-0.000000 -0.002500 -0.000000 -0.377964 -0.912487 0.156558 226 230 201
-0.001250 -0.001768 0.001250 -0.377964 -0.912487 0.156558 177 180 175
0.000000 0.002500 -0.000000 -0.377964 0.912487 0.156558 176 179 174
-0.001768 0.001768 -0.000000 -0.377964 0.912487 0.156558 218 222 197
-0.001250 0.001768 0.001250 -0.377964 0.912487 0.156558 226 230 201
-0.001768 -0.001768 -0.000000 -0.862856 -0.357407 0.357407 181 184 177
-0.001768 0.000000 0.001768 -0.862856 -0.357407 0.357407 226 230 201
-0.002500 0.000000 -0.000000 -0.862856 -0.357407 0.357407 224 228 200
-0.001768 0.000000 0.001768 -0.357407 0.357407 0.862856 226 230 201
-0.000000 0.001768 0.001768 -0.357407 0.357407 0.862856 210 211 192
-0.001250 0.001768 0.001250 -0.357407 0.357407 0.862856 226 230 201
-0.001250 -0.001768 0.001250 -0.156558 -0.912487 0.377964 177 180 175
-0.000000 -0.002500 -0.000000 -0.156558 -0.912487 0.377964 226 230 201
-0.000000 -0.001768 0.001768 -0.156558 -0.912487 0.377964 215 219 195
0.000000 0.002500 -0.000000 -0.156558 0.912487 0.377965 176 179 174
-0.001250 0.001768 0.001250 -0.156558 0.912487 0.377965 176 179 174
-0.000000 0.001768 0.001768 -0.156558 0.912487 0.377965 200 202 187
-0.001250 -0.001768 0.001250 -0.357407 -0.357407 0.862856 177 180 175
0.000000 0.000000 0.002500 -0.357407 -0.357407 0.862856 200 203 188
-0.001768 0.000000 0.001768 -0.357407 -0.357407 0.862856 226 230 201
0.001250 -0.001768 0.001250 0.357407 -0.357407 0.862856 193 196 183
0.000000 0.000000 0.002500 0.357407 0.357407 0.862856 200 203 188
0.001768 0.000000 0.001768 0.357407 0.357407 0.862856 176 179 174
0.001250 -0.001768 0.001250 0.862856 -0.357407 0.357407 193 196 183
0.002500 0.000000 -0.000000 0.862856 0.357407 0.357407 176 179 174
0.001250 -0.001768 -0.001250 0.862856 -0.357407 -0.357407 176 179 174
0.001768 0.000000 -0.001768 0.862856 -0.357407 -0.357407 201 205 187
0.002500 0.000000 -0.000000 0.862856 0.357407 -0.357407 176 179 174
-0.000000 -0.001768 -0.001768 0.357407 -0.357407 -0.862856 215 219 194
-0.000000 0.000000 -0.002500 0.357407 0.357407 -0.862856 179 182 176
-0.000000 -0.001768 -0.001768 -0.357407 -0.357407 -0.862856 215 219 194
-0.001250 -0.001768 -0.001250 -0.357407 -0.357407 -0.862856 176 179 174
-0.000000 0.000000 -0.002500 -0.357407 0.357407 -0.862856 179 182 176
-0.002500 0.000000 -0.000000 -0.862856 0.357407 -0.357407 179 182 176
-0.001768 -0.001768 -0.000000 -0.862856 -0.357407 -0.357407 176 179 174
-0.001768 0.000000 0.001768 -0.862856 0.357407 0.357407 226 230 201
-0.001250 -0.001768 0.001250 -0.862856 -0.357407 0.357407 177 180 175
-0.001768 0.000000 0.001768 -0.357407 0.357407 0.862856 213 217 195
0.000000 0.000000 0.002500 -0.357407 0.357407 0.862856 200 203 188
-0.000000 0.001768 0.001768 -0.357407 0.357407 0.862856 201 203 188
-0.001250 -0.001768 0.001250 -0.357407 -0.357407 0.862856 176 179 174
-0.000000 -0.001768 0.001768 -0.357407 -0.357407 0.862856 177 180 174
3 0 1 2
3 3 4 5
3 6 7 8
3 9 10 11
3 12 13 14
3 15 16 17
3 18 19 20
3 21 22 23
3 24 25 26
3 27 28 29
3 30 31 32
3 33 34 35
3 36 37 38
3 39 40 41
3 42 43 44
3 45 46 47
3 48 49 50
3 51 52 53
3 54 55 56
3 57 58 59
3 60 61 62
3 63 64 65
3 66 67 68
3 69 70 71
3 72 73 74
3 75 76 77
3 78 79 80
3 81 82 83
3 84 85 86
3 87 88 89
3 90 91 92
3 93 94 95
3 3 96 4
3 97 98 7
3 15 99 16
3 18 100 19
3 27 101 102
3 30 103 31
3 39 104 40
3 42 105 43
3 106 107 55
3 57 108 58
3 60 109 61
3 69 110 70
3 72 111 73
3 81 112 82
3 113 114 115
3 116 117 94
