ply
format ascii 1.0
comment Created by Blender 2.79 (sub 0) - www.blender.org, source file: ''
element vertex 388
property float x
property float y
property float z
property float nx
property float ny
property float nz
property uchar red
property uchar green
property uchar blue
element face 140
property list uchar uint vertex_indices
end_header
0.000000 -0.000827 0.000827 0.260810 -0.536345 0.802691 139 131 148
0.000635 -0.000448 0.000874 0.260810 -0.536345 0.802691 139 131 148
0.000000 -0.000448 0.001081 0.260810 -0.536345 0.802691 139 131 148
0.000000 -0.001081 0.000448 0.063261 -0.978821 0.194696 139 131 148
0.000000 -0.001170 0.000000 0.063261 -0.978821 0.194696 139 131 148
0.000263 -0.001081 0.000362 0.063261 -0.978821 0.194696 139 131 148
0.000000 0.001170 0.000000 0.063261 0.978821 0.194696 139 131 148
0.000000 0.001081 0.000448 0.063261 0.978821 0.194696 139 131 148
0.000263 0.001081 0.000362 0.063261 0.978821 0.194696 139 131 148
0.000000 0.000827 0.000827 0.260810 0.536344 0.802691 139 131 148
0.000635 0.000448 0.000874 0.260810 0.536344 0.802691 139 131 148
0.000486 0.000827 0.000669 0.260810 0.536344 0.802691 139 131 148
0.000000 0.000000 0.001170 0.303632 -0.185876 0.934483 139 131 148
0.000635 -0.000448 0.000874 0.303632 -0.185876 0.934483 139 131 148
0.000688 0.000000 0.000946 0.303632 -0.185876 0.934483 139 131 148
0.000000 -0.001081 0.000448 0.177645 -0.818243 0.546736 139 131 148
0.000486 -0.000827 0.000669 0.177645 -0.818243 0.546736 139 131 148
0.000000 -0.000827 0.000827 0.177645 -0.818243 0.546736 139 131 148
0.000000 0.000827 0.000827 0.177647 0.818243 0.546736 139 131 148
0.000263 0.001081 0.000362 0.177647 0.818243 0.546736 139 131 148
0.000000 0.001081 0.000448 0.177647 0.818243 0.546736 139 131 148
0.000000 0.000000 0.001170 0.303632 0.185877 0.934483 139 131 148
0.000635 0.000448 0.000874 0.303632 0.185877 0.934483 139 131 148
0.000000 0.000448 0.001081 0.303632 0.185877 0.934483 139 131 148
0.000486 0.000827 0.000669 0.682810 0.536343 0.496092 139 131 148
0.001028 0.000448 0.000334 0.682810 0.536343 0.496092 139 131 148
0.000787 0.000827 0.000256 0.682810 0.536343 0.496092 139 131 148
0.000688 0.000000 0.000946 0.794918 -0.185877 0.577542 139 131 148
0.001028 -0.000448 0.000334 0.794918 -0.185877 0.577542 139 131 148
0.001112 0.000000 0.000361 0.794918 -0.185877 0.577542 139 131 148
0.000263 -0.001081 0.000362 0.465080 -0.818244 0.337901 139 131 148
0.000787 -0.000827 0.000256 0.465080 -0.818244 0.337901 139 131 148
0.000486 -0.000827 0.000669 0.465080 -0.818244 0.337901 139 131 148
0.000263 0.001081 0.000362 0.465080 0.818241 0.337909 139 131 148
0.000787 0.000827 0.000256 0.465080 0.818241 0.337909 139 131 148
0.000426 0.001081 0.000138 0.465080 0.818241 0.337909 139 131 148
0.000688 0.000000 0.000946 0.794918 0.185877 0.577542 139 131 148
0.001028 0.000448 0.000334 0.794918 0.185877 0.577542 139 131 148
0.000635 0.000448 0.000874 0.794918 0.185877 0.577542 139 131 148
0.000635 -0.000448 0.000874 0.682811 -0.536343 0.496091 139 131 148
0.000787 -0.000827 0.000256 0.682811 -0.536343 0.496091 139 131 148
0.001028 -0.000448 0.000334 0.682811 -0.536343 0.496091 139 131 148
0.000263 -0.001081 0.000362 0.165617 -0.978822 0.120331 139 131 148
0.000000 -0.001170 0.000000 0.165617 -0.978822 0.120331 139 131 148
0.000426 -0.001081 0.000138 0.165617 -0.978822 0.120331 139 131 148
0.000000 0.001170 0.000000 0.165617 0.978822 0.120331 139 131 148
0.000263 0.001081 0.000362 0.165617 0.978822 0.120331 139 131 148
0.000426 0.001081 0.000138 0.165617 0.978822 0.120331 139 131 148
0.000787 0.000827 0.000256 0.574873 0.818242 0.000000 139 131 148
0.000426 0.001081 -0.000138 0.574873 0.818242 0.000000 139 131 148
0.000426 0.001081 0.000138 0.574873 0.818242 0.000000 139 131 148
0.001112 0.000000 0.000361 0.982573 0.185876 0.000000 139 131 148
0.001028 0.000448 -0.000334 0.982573 0.185876 0.000000 139 131 148
0.001028 0.000448 0.000334 0.982573 0.185876 0.000000 139 131 148
0.000787 -0.000827 0.000256 0.844001 -0.536342 0.000000 139 131 148
0.001028 -0.000448 -0.000334 0.844001 -0.536342 0.000000 139 131 148
0.001028 -0.000448 0.000334 0.844001 -0.536342 0.000000 139 131 148
0.000426 -0.001081 0.000138 0.204715 -0.978822 0.000000 139 131 148
0.000000 -0.001170 0.000000 0.204715 -0.978822 0.000000 139 131 148
0.000426 -0.001081 -0.000138 0.204715 -0.978822 0.000000 139 131 148
0.000000 0.001170 0.000000 0.204715 0.978822 -0.000000 139 131 148
0.000426 0.001081 0.000138 0.204715 0.978822 -0.000000 139 131 148
0.000426 0.001081 -0.000138 0.204715 0.978822 -0.000000 139 131 148
0.001028 0.000448 0.000334 0.844001 0.536342 0.000000 139 131 148
0.000787 0.000827 -0.000256 0.844001 0.536342 0.000000 139 131 148
0.000787 0.000827 0.000256 0.844001 0.536342 0.000000 139 131 148
0.001112 0.000000 0.000361 0.982573 -0.185876 0.000000 139 131 148
0.001028 -0.000448 -0.000334 0.982573 -0.185876 0.000000 139 131 148
0.001112 0.000000 -0.000361 0.982573 -0.185876 0.000000 139 131 148
0.000787 -0.000827 0.000256 0.574873 -0.818242 0.000000 139 131 148
0.000426 -0.001081 -0.000138 0.574873 -0.818242 0.000000 139 131 148
0.000787 -0.000827 -0.000256 0.574873 -0.818242 0.000000 139 131 148
0.001112 0.000000 -0.000361 0.794917 0.185873 -0.577545 139 131 148
0.000635 0.000448 -0.000874 0.794917 0.185873 -0.577545 139 131 148
0.001028 0.000448 -0.000334 0.794917 0.185873 -0.577545 139 131 148
0.000787 -0.000827 -0.000256 0.682809 -0.536342 -0.496093 139 131 148
0.000635 -0.000448 -0.000874 0.682809 -0.536342 -0.496093 139 131 148
0.001028 -0.000448 -0.000334 0.682809 -0.536342 -0.496093 139 131 148
0.000426 -0.001081 -0.000138 0.165618 -0.978821 -0.120330 139 131 148
0.000000 -0.001170 0.000000 0.165618 -0.978821 -0.120330 139 131 148
0.000263 -0.001081 -0.000362 0.165618 -0.978821 -0.120330 139 131 148
0.000000 0.001170 0.000000 0.165618 0.978821 -0.120330 139 131 148
0.000426 0.001081 -0.000138 0.165618 0.978821 -0.120330 139 131 148
0.000263 0.001081 -0.000362 0.165618 0.978821 -0.120330 139 131 148
0.001028 0.000448 -0.000334 0.682810 0.536343 -0.496092 139 131 148
0.000486 0.000827 -0.000669 0.682810 0.536343 -0.496092 139 131 148
0.000787 0.000827 -0.000256 0.682810 0.536343 -0.496092 139 131 148
0.001112 0.000000 -0.000361 0.794919 -0.185881 -0.577539 139 131 148
0.000635 -0.000448 -0.000874 0.794919 -0.185881 -0.577539 139 131 148
0.000688 0.000000 -0.000946 0.794919 -0.185881 -0.577539 139 131 148
0.000426 -0.001081 -0.000138 0.465081 -0.818243 -0.337902 139 131 148
0.000486 -0.000827 -0.000669 0.465081 -0.818243 -0.337902 139 131 148
0.000787 -0.000827 -0.000256 0.465081 -0.818243 -0.337902 139 131 148
0.000787 0.000827 -0.000256 0.465080 0.818243 -0.337903 139 131 148
0.000263 0.001081 -0.000362 0.465080 0.818243 -0.337903 139 131 148
0.000426 0.001081 -0.000138 0.465080 0.818243 -0.337903 139 131 148
0.000000 0.001170 0.000000 0.063261 0.978821 -0.194696 139 131 148
0.000263 0.001081 -0.000362 0.063261 0.978821 -0.194696 139 131 148
0.000000 0.001081 -0.000448 0.063261 0.978821 -0.194696 139 131 148
0.000486 0.000827 -0.000669 0.260811 0.536339 -0.802694 139 131 148
0.000000 0.000448 -0.001081 0.260811 0.536339 -0.802694 139 131 148
0.000000 0.000827 -0.000827 0.260811 0.536339 -0.802694 139 131 148
0.000688 0.000000 -0.000946 0.303632 -0.185884 -0.934481 139 131 148
0.000000 -0.000448 -0.001081 0.303632 -0.185884 -0.934481 139 131 148
0.000000 0.000000 -0.001170 0.303632 -0.185884 -0.934481 139 131 148
0.000263 -0.001081 -0.000362 0.177645 -0.818244 -0.546736 139 131 148
0.000000 -0.000827 -0.000827 0.177645 -0.818244 -0.546736 139 131 148
0.000486 -0.000827 -0.000669 0.177645 -0.818244 -0.546736 139 131 148
0.000263 0.001081 -0.000362 0.177647 0.818243 -0.546736 139 131 148
0.000000 0.000827 -0.000827 0.177647 0.818243 -0.546736 139 131 148
0.000000 0.001081 -0.000448 0.177647 0.818243 -0.546736 139 131 148
0.000688 0.000000 -0.000946 0.303631 0.185883 -0.934481 139 131 148
0.000000 0.000448 -0.001081 0.303631 0.185883 -0.934481 139 131 148
0.000635 0.000448 -0.000874 0.303631 0.185883 -0.934481 139 131 148
0.000486 -0.000827 -0.000669 0.260811 -0.536339 -0.802694 139 131 148
0.000000 -0.000448 -0.001081 0.260811 -0.536339 -0.802694 139 131 148
0.000635 -0.000448 -0.000874 0.260811 -0.536339 -0.802694 139 131 148
0.000263 -0.001081 -0.000362 0.063261 -0.978821 -0.194696 139 131 148
0.000000 -0.001170 0.000000 0.063261 -0.978821 -0.194696 139 131 148
0.000000 -0.001081 -0.000448 0.063261 -0.978821 -0.194696 139 131 148
0.000000 0.000000 -0.001170 -0.303632 -0.185883 -0.934481 139 131 148
-0.000635 -0.000448 -0.000874 -0.303632 -0.185883 -0.934481 139 131 148
-0.000688 0.000000 -0.000946 -0.303632 -0.185883 -0.934481 139 131 148
0.000000 -0.001081 -0.000448 -0.177645 -0.818243 -0.546736 139 131 148
-0.000486 -0.000827 -0.000669 -0.177645 -0.818243 -0.546736 139 131 148
0.000000 -0.000827 -0.000827 -0.177645 -0.818243 -0.546736 139 131 148
0.000000 0.000827 -0.000827 -0.177647 0.818243 -0.546736 139 131 148
-0.000263 0.001081 -0.000362 -0.177647 0.818243 -0.546736 139 131 148
0.000000 0.001081 -0.000448 -0.177647 0.818243 -0.546736 139 131 148
0.000000 0.000000 -0.001170 -0.303631 0.185884 -0.934481 139 131 148
-0.000635 0.000448 -0.000874 -0.303631 0.185884 -0.934481 139 131 148
0.000000 0.000448 -0.001081 -0.303631 0.185884 -0.934481 139 131 148
0.000000 -0.000827 -0.000827 -0.260811 -0.536339 -0.802694 139 131 148
-0.000635 -0.000448 -0.000874 -0.260811 -0.536339 -0.802694 139 131 148
0.000000 -0.000448 -0.001081 -0.260811 -0.536339 -0.802694 139 131 148
0.000000 -0.001081 -0.000448 -0.063261 -0.978821 -0.194696 139 131 148
0.000000 -0.001170 0.000000 -0.063261 -0.978821 -0.194696 139 131 148
-0.000263 -0.001081 -0.000362 -0.063261 -0.978821 -0.194696 139 131 148
0.000000 0.001170 0.000000 -0.063261 0.978821 -0.194696 139 131 148
0.000000 0.001081 -0.000448 -0.063261 0.978821 -0.194696 139 131 148
-0.000263 0.001081 -0.000362 -0.063261 0.978821 -0.194696 139 131 148
0.000000 0.000448 -0.001081 -0.260811 0.536339 -0.802694 139 131 148
-0.000486 0.000827 -0.000669 -0.260811 0.536339 -0.802694 139 131 148
0.000000 0.000827 -0.000827 -0.260811 0.536339 -0.802694 139 131 148
-0.000486 0.000827 -0.000669 -0.465079 0.818244 -0.337902 139 131 148
-0.000426 0.001081 -0.000138 -0.465079 0.818244 -0.337902 139 131 148
-0.000263 0.001081 -0.000362 -0.465079 0.818244 -0.337902 139 131 148
-0.000688 0.000000 -0.000946 -0.794916 0.185881 -0.577544 139 131 148
-0.001028 0.000448 -0.000334 -0.794916 0.185881 -0.577544 139 131 148
-0.000635 0.000448 -0.000874 -0.794916 0.185881 -0.577544 139 131 148
-0.000486 -0.000827 -0.000669 -0.682810 -0.536341 -0.496094 139 131 148
-0.001028 -0.000448 -0.000334 -0.682810 -0.536341 -0.496094 139 131 148
-0.000635 -0.000448 -0.000874 -0.682810 -0.536341 -0.496094 139 131 148
-0.000263 -0.001081 -0.000362 -0.165618 -0.978821 -0.120330 139 131 148
0.000000 -0.001170 0.000000 -0.165618 -0.978821 -0.120330 139 131 148
-0.000426 -0.001081 -0.000138 -0.165618 -0.978821 -0.120330 139 131 148
0.000000 0.001170 0.000000 -0.165618 0.978821 -0.120330 139 131 148
-0.000263 0.001081 -0.000362 -0.165618 0.978821 -0.120330 139 131 148
-0.000426 0.001081 -0.000138 -0.165618 0.978821 -0.120330 139 131 148
-0.000635 0.000448 -0.000874 -0.682811 0.536341 -0.496093 139 131 148
-0.000787 0.000827 -0.000256 -0.682811 0.536341 -0.496093 139 131 148
-0.000486 0.000827 -0.000669 -0.682811 0.536341 -0.496093 139 131 148
-0.000688 0.000000 -0.000946 -0.794918 -0.185877 -0.577542 139 131 148
-0.001028 -0.000448 -0.000334 -0.794918 -0.185877 -0.577542 139 131 148
-0.001112 0.000000 -0.000361 -0.794918 -0.185877 -0.577542 139 131 148
-0.000263 -0.001081 -0.000362 -0.465080 -0.818244 -0.337901 139 131 148
-0.000787 -0.000827 -0.000256 -0.465080 -0.818244 -0.337901 139 131 148
-0.000486 -0.000827 -0.000669 -0.465080 -0.818244 -0.337901 139 131 148
-0.000787 -0.000827 -0.000256 -0.844001 -0.536342 0.000000 139 131 148
-0.001028 -0.000448 0.000334 -0.844001 -0.536342 0.000000 139 131 148
-0.001028 -0.000448 -0.000334 -0.844001 -0.536342 0.000000 139 131 148
-0.000426 -0.001081 -0.000138 -0.204715 -0.978822 0.000000 139 131 148
0.000000 -0.001170 0.000000 -0.204715 -0.978822 0.000000 139 131 148
-0.000426 -0.001081 0.000138 -0.204715 -0.978822 0.000000 139 131 148
0.000000 0.001170 0.000000 -0.204715 0.978822 0.000000 139 131 148
-0.000426 0.001081 -0.000138 -0.204715 0.978822 0.000000 139 131 148
-0.000426 0.001081 0.000138 -0.204715 0.978822 0.000000 139 131 148
-0.001028 0.000448 -0.000334 -0.844001 0.536342 0.000000 139 131 148
-0.000787 0.000827 0.000256 -0.844001 0.536342 0.000000 139 131 148
-0.000787 0.000827 -0.000256 -0.844001 0.536342 0.000000 139 131 148
-0.001112 0.000000 -0.000361 -0.982573 -0.185876 0.000000 139 131 148
-0.001028 -0.000448 0.000334 -0.982573 -0.185876 0.000000 139 131 148
-0.001112 0.000000 0.000361 -0.982573 -0.185876 0.000000 139 131 148
-0.000426 -0.001081 -0.000138 -0.574873 -0.818242 0.000000 139 131 148
-0.000787 -0.000827 0.000256 -0.574873 -0.818242 0.000000 139 131 148
-0.000787 -0.000827 -0.000256 -0.574873 -0.818242 0.000000 139 131 148
-0.000426 0.001081 -0.000138 -0.574873 0.818242 0.000000 139 131 148
-0.000787 0.000827 0.000256 -0.574873 0.818242 0.000000 139 131 148
-0.000426 0.001081 0.000138 -0.574873 0.818242 0.000000 139 131 148
-0.001112 0.000000 -0.000361 -0.982573 0.185876 0.000000 139 131 148
-0.001028 0.000448 0.000334 -0.982573 0.185876 0.000000 139 131 148
-0.001028 0.000448 -0.000334 -0.982573 0.185876 0.000000 139 131 148
0.000000 0.001170 0.000000 -0.165617 0.978822 0.120331 139 131 148
-0.000426 0.001081 0.000138 -0.165617 0.978822 0.120331 139 131 148
-0.000263 0.001081 0.000362 -0.165617 0.978822 0.120331 139 131 148
-0.001028 0.000448 0.000334 -0.682810 0.536343 0.496092 139 131 148
-0.000486 0.000827 0.000669 -0.682810 0.536343 0.496092 139 131 148
-0.000787 0.000827 0.000256 -0.682810 0.536343 0.496092 139 131 148
-0.001028 -0.000448 0.000334 -0.794918 -0.185877 0.577542 139 131 148
-0.000688 0.000000 0.000946 -0.794918 -0.185877 0.577542 139 131 148
-0.001112 0.000000 0.000361 -0.794918 -0.185877 0.577542 139 131 148
-0.000426 -0.001081 0.000138 -0.465082 -0.818242 0.337903 139 131 148
-0.000486 -0.000827 0.000669 -0.465082 -0.818242 0.337903 139 131 148
-0.000787 -0.000827 0.000256 -0.465082 -0.818242 0.337903 139 131 148
-0.000426 0.001081 0.000138 -0.465076 0.818245 0.337905 139 131 148
-0.000486 0.000827 0.000669 -0.465076 0.818245 0.337905 139 131 148
-0.000263 0.001081 0.000362 -0.465076 0.818245 0.337905 139 131 148
-0.001112 0.000000 0.000361 -0.794917 0.185877 0.577544 139 131 148
-0.000635 0.000448 0.000874 -0.794917 0.185877 0.577544 139 131 148
-0.001028 0.000448 0.000334 -0.794917 0.185877 0.577544 139 131 148
-0.000787 -0.000827 0.000256 -0.682809 -0.536342 0.496093 139 131 148
-0.000635 -0.000448 0.000874 -0.682809 -0.536342 0.496093 139 131 148
-0.001028 -0.000448 0.000334 -0.682809 -0.536342 0.496093 139 131 148
-0.000426 -0.001081 0.000138 -0.165617 -0.978822 0.120331 139 131 148
0.000000 -0.001170 0.000000 -0.165617 -0.978822 0.120331 139 131 148
-0.000263 -0.001081 0.000362 -0.165617 -0.978822 0.120331 139 131 148
-0.000486 -0.000827 0.000669 -0.177645 -0.818243 0.546736 139 131 148
0.000000 -0.001081 0.000448 -0.177645 -0.818243 0.546736 139 131 148
0.000000 -0.000827 0.000827 -0.177645 -0.818243 0.546736 139 131 148
-0.000486 0.000827 0.000669 -0.177646 0.818244 0.546735 139 131 148
0.000000 0.001081 0.000448 -0.177646 0.818244 0.546735 139 131 148
-0.000263 0.001081 0.000362 -0.177646 0.818244 0.546735 139 131 148
-0.000688 0.000000 0.000946 -0.303636 0.185883 0.934480 139 131 148
0.000000 0.000448 0.001081 -0.303636 0.185883 0.934480 139 131 148
-0.000635 0.000448 0.000874 -0.303636 0.185883 0.934480 139 131 148
-0.000635 -0.000448 0.000874 -0.260814 -0.536344 0.802690 139 131 148
0.000000 -0.000827 0.000827 -0.260814 -0.536344 0.802690 139 131 148
0.000000 -0.000448 0.001081 -0.260814 -0.536344 0.802690 139 131 148
-0.000263 -0.001081 0.000362 -0.063261 -0.978821 0.194696 139 131 148
0.000000 -0.001170 0.000000 -0.063261 -0.978821 0.194696 139 131 148
0.000000 -0.001081 0.000448 -0.063261 -0.978821 0.194696 139 131 148
0.000000 0.001170 0.000000 -0.063261 0.978821 0.194696 139 131 148
-0.000263 0.001081 0.000362 -0.063261 0.978821 0.194696 139 131 148
0.000000 0.001081 0.000448 -0.063261 0.978821 0.194696 139 131 148
-0.000635 0.000448 0.000874 -0.260811 0.536339 0.802694 139 131 148
0.000000 0.000827 0.000827 -0.260811 0.536339 0.802694 139 131 148
-0.000486 0.000827 0.000669 -0.260811 0.536339 0.802694 139 131 148
-0.000688 0.000000 0.000946 -0.303632 -0.185877 0.934482 139 131 148
0.000000 -0.000448 0.001081 -0.303632 -0.185877 0.934482 139 131 148
0.000000 0.000000 0.001170 -0.303632 -0.185877 0.934482 139 131 148
0.000000 -0.000827 0.000827 0.260810 -0.536344 0.802691 139 131 148
0.000486 -0.000827 0.000669 0.260810 -0.536344 0.802691 139 131 148
0.000635 -0.000448 0.000874 0.260810 -0.536344 0.802691 139 131 148
0.000000 0.000827 0.000827 0.260810 0.536345 0.802691 139 131 148
0.000000 0.000448 0.001081 0.260810 0.536345 0.802691 139 131 148
0.000635 0.000448 0.000874 0.260810 0.536345 0.802691 139 131 148
0.000000 0.000000 0.001170 0.303632 -0.185877 0.934483 139 131 148
0.000000 -0.000448 0.001081 0.303632 -0.185877 0.934483 139 131 148
0.000635 -0.000448 0.000874 0.303632 -0.185877 0.934483 139 131 148
0.000000 -0.001081 0.000448 0.177646 -0.818244 0.546735 139 131 148
0.000263 -0.001081 0.000362 0.177646 -0.818244 0.546735 139 131 148
0.000486 -0.000827 0.000669 0.177646 -0.818244 0.546735 139 131 148
0.000000 0.000827 0.000827 0.177645 0.818244 0.546736 139 131 148
0.000486 0.000827 0.000669 0.177645 0.818244 0.546736 139 131 148
0.000263 0.001081 0.000362 0.177645 0.818244 0.546736 139 131 148
0.000000 0.000000 0.001170 0.303632 0.185876 0.934483 139 131 148
0.000688 0.000000 0.000946 0.303632 0.185876 0.934483 139 131 148
0.000635 0.000448 0.000874 0.303632 0.185876 0.934483 139 131 148
0.000486 0.000827 0.000669 0.682810 0.536344 0.496090 139 131 148
0.000635 0.000448 0.000874 0.682810 0.536344 0.496090 139 131 148
0.001028 0.000448 0.000334 0.682810 0.536344 0.496090 139 131 148
0.000635 -0.000448 0.000874 0.794918 -0.185877 0.577542 139 131 148
0.000263 -0.001081 0.000362 0.465080 -0.818241 0.337909 139 131 148
0.000426 -0.001081 0.000138 0.465080 -0.818241 0.337909 139 131 148
0.000787 -0.000827 0.000256 0.465080 -0.818241 0.337909 139 131 148
0.000263 0.001081 0.000362 0.465080 0.818244 0.337901 139 131 148
0.000486 0.000827 0.000669 0.465080 0.818244 0.337901 139 131 148
0.000787 0.000827 0.000256 0.465080 0.818244 0.337901 139 131 148
0.001112 0.000000 0.000361 0.794918 0.185877 0.577542 139 131 148
0.000635 -0.000448 0.000874 0.682809 -0.536344 0.496091 139 131 148
0.000486 -0.000827 0.000669 0.682809 -0.536344 0.496091 139 131 148
0.000787 -0.000827 0.000256 0.682809 -0.536344 0.496091 139 131 148
0.000787 0.000827 -0.000256 0.574873 0.818242 -0.000000 139 131 148
0.001112 0.000000 -0.000361 0.982573 0.185876 -0.000000 139 131 148
0.000787 -0.000827 -0.000256 0.844001 -0.536342 0.000000 139 131 148
0.001028 0.000448 -0.000334 0.844001 0.536342 -0.000000 139 131 148
0.001028 -0.000448 0.000334 0.982573 -0.185876 0.000000 139 131 148
0.000426 -0.001081 0.000138 0.574873 -0.818242 0.000000 139 131 148
0.001112 0.000000 -0.000361 0.794919 0.185881 -0.577539 139 131 148
0.000688 0.000000 -0.000946 0.794919 0.185881 -0.577539 139 131 148
0.000635 0.000448 -0.000874 0.794919 0.185881 -0.577539 139 131 148
0.000787 -0.000827 -0.000256 0.682811 -0.536341 -0.496093 139 131 148
0.000486 -0.000827 -0.000669 0.682811 -0.536341 -0.496093 139 131 148
0.000635 -0.000448 -0.000874 0.682811 -0.536341 -0.496093 139 131 148
0.001028 0.000448 -0.000334 0.682810 0.536341 -0.496094 139 131 148
0.000635 0.000448 -0.000874 0.682810 0.536341 -0.496094 139 131 148
0.000486 0.000827 -0.000669 0.682810 0.536341 -0.496094 139 131 148
0.001112 0.000000 -0.000361 0.794917 -0.185873 -0.577545 139 131 148
0.001028 -0.000448 -0.000334 0.794917 -0.185873 -0.577545 139 131 148
0.000635 -0.000448 -0.000874 0.794917 -0.185873 -0.577545 139 131 148
0.000426 -0.001081 -0.000138 0.465079 -0.818244 -0.337902 139 131 148
0.000263 -0.001081 -0.000362 0.465079 -0.818244 -0.337902 139 131 148
0.000486 -0.000827 -0.000669 0.465079 -0.818244 -0.337902 139 131 148
0.000787 0.000827 -0.000256 0.465080 0.818244 -0.337901 139 131 148
0.000486 0.000827 -0.000669 0.465080 0.818244 -0.337901 139 131 148
0.000263 0.001081 -0.000362 0.465080 0.818244 -0.337901 139 131 148
0.000486 0.000827 -0.000669 0.260811 0.536339 -0.802694 139 131 148
0.000635 0.000448 -0.000874 0.260811 0.536339 -0.802694 139 131 148
0.000000 0.000448 -0.001081 0.260811 0.536339 -0.802694 139 131 148
0.000688 0.000000 -0.000946 0.303631 -0.185883 -0.934481 139 131 148
0.000635 -0.000448 -0.000874 0.303631 -0.185883 -0.934481 139 131 148
0.000000 -0.000448 -0.001081 0.303631 -0.185883 -0.934481 139 131 148
0.000263 -0.001081 -0.000362 0.177647 -0.818243 -0.546736 139 131 148
0.000000 -0.001081 -0.000448 0.177647 -0.818243 -0.546736 139 131 148
0.000000 -0.000827 -0.000827 0.177647 -0.818243 -0.546736 139 131 148
0.000263 0.001081 -0.000362 0.177645 0.818244 -0.546736 139 131 148
0.000486 0.000827 -0.000669 0.177645 0.818244 -0.546736 139 131 148
0.000000 0.000827 -0.000827 0.177645 0.818244 -0.546736 139 131 148
0.000688 0.000000 -0.000946 0.303632 0.185884 -0.934481 139 131 148
0.000000 0.000000 -0.001170 0.303632 0.185884 -0.934481 139 131 148
0.000000 0.000448 -0.001081 0.303632 0.185884 -0.934481 139 131 148
0.000000 -0.000827 -0.000827 0.260811 -0.536339 -0.802694 139 131 148
0.000000 0.000000 -0.001170 -0.303631 -0.185884 -0.934481 139 131 148
0.000000 -0.000448 -0.001081 -0.303631 -0.185884 -0.934481 139 131 148
-0.000635 -0.000448 -0.000874 -0.303631 -0.185884 -0.934481 139 131 148
0.000000 -0.001081 -0.000448 -0.177646 -0.818244 -0.546735 139 131 148
-0.000263 -0.001081 -0.000362 -0.177646 -0.818244 -0.546735 139 131 148
-0.000486 -0.000827 -0.000669 -0.177646 -0.818244 -0.546735 139 131 148
0.000000 0.000827 -0.000827 -0.177645 0.818244 -0.546736 139 131 148
-0.000486 0.000827 -0.000669 -0.177645 0.818244 -0.546736 139 131 148
-0.000263 0.001081 -0.000362 -0.177645 0.818244 -0.546736 139 131 148
0.000000 0.000000 -0.001170 -0.303632 0.185883 -0.934481 139 131 148
-0.000688 0.000000 -0.000946 -0.303632 0.185883 -0.934481 139 131 148
-0.000635 0.000448 -0.000874 -0.303632 0.185883 -0.934481 139 131 148
0.000000 -0.000827 -0.000827 -0.260811 -0.536339 -0.802694 139 131 148
-0.000486 -0.000827 -0.000669 -0.260811 -0.536339 -0.802694 139 131 148
-0.000635 -0.000448 -0.000874 -0.260811 -0.536339 -0.802694 139 131 148
-0.000635 0.000448 -0.000874 -0.260811 0.536339 -0.802694 139 131 148
-0.000486 0.000827 -0.000669 -0.465081 0.818243 -0.337902 139 131 148
-0.000787 0.000827 -0.000256 -0.465081 0.818243 -0.337902 139 131 148
-0.000426 0.001081 -0.000138 -0.465081 0.818243 -0.337902 139 131 148
-0.000688 0.000000 -0.000946 -0.794918 0.185877 -0.577542 139 131 148
-0.001112 0.000000 -0.000361 -0.794918 0.185877 -0.577542 139 131 148
-0.001028 0.000448 -0.000334 -0.794918 0.185877 -0.577542 139 131 148
-0.000486 -0.000827 -0.000669 -0.682810 -0.536343 -0.496092 139 131 148
-0.000787 -0.000827 -0.000256 -0.682810 -0.536343 -0.496092 139 131 148
-0.001028 -0.000448 -0.000334 -0.682810 -0.536343 -0.496092 139 131 148
-0.000635 0.000448 -0.000874 -0.682809 0.536342 -0.496093 139 131 148
-0.001028 0.000448 -0.000334 -0.682809 0.536342 -0.496093 139 131 148
-0.000787 0.000827 -0.000256 -0.682809 0.536342 -0.496093 139 131 148
-0.000688 0.000000 -0.000946 -0.794916 -0.185881 -0.577544 139 131 148
-0.000635 -0.000448 -0.000874 -0.794916 -0.185881 -0.577544 139 131 148
-0.001028 -0.000448 -0.000334 -0.794916 -0.185881 -0.577544 139 131 148
-0.000263 -0.001081 -0.000362 -0.465080 -0.818243 -0.337903 139 131 148
-0.000426 -0.001081 -0.000138 -0.465080 -0.818243 -0.337903 139 131 148
-0.000787 -0.000827 -0.000256 -0.465080 -0.818243 -0.337903 139 131 148
-0.000787 -0.000827 0.000256 -0.844001 -0.536342 -0.000000 139 131 148
-0.001028 0.000448 0.000334 -0.844001 0.536342 0.000000 139 131 148
-0.001028 -0.000448 -0.000334 -0.982573 -0.185876 -0.000000 139 131 148
-0.000426 -0.001081 0.000138 -0.574873 -0.818242 -0.000000 139 131 148
-0.000787 0.000827 -0.000256 -0.574873 0.818242 0.000000 139 131 148
-0.001112 0.000000 0.000361 -0.982573 0.185876 0.000000 139 130 148
-0.001028 0.000448 0.000334 -0.682810 0.536341 0.496094 139 131 148
-0.000635 0.000448 0.000874 -0.682810 0.536341 0.496094 139 131 148
-0.000486 0.000827 0.000669 -0.682810 0.536341 0.496094 139 131 148
-0.001028 -0.000448 0.000334 -0.794916 -0.185881 0.577544 139 131 148
-0.000635 -0.000448 0.000874 -0.794916 -0.185881 0.577544 139 131 148
-0.000688 0.000000 0.000946 -0.794916 -0.185881 0.577544 139 131 148
-0.000426 -0.001081 0.000138 -0.465076 -0.818245 0.337905 139 131 148
-0.000263 -0.001081 0.000362 -0.465076 -0.818245 0.337905 139 131 148
-0.000486 -0.000827 0.000669 -0.465076 -0.818245 0.337905 139 131 148
-0.000426 0.001081 0.000138 -0.465083 0.818242 0.337903 139 131 148
-0.000787 0.000827 0.000256 -0.465083 0.818242 0.337903 139 131 148
-0.000486 0.000827 0.000669 -0.465083 0.818242 0.337903 139 131 148
-0.001112 0.000000 0.000361 -0.794918 0.185881 0.577542 139 131 148
-0.000688 0.000000 0.000946 -0.794918 0.185881 0.577542 139 131 148
-0.000635 0.000448 0.000874 -0.794918 0.185881 0.577542 139 131 148
-0.000787 -0.000827 0.000256 -0.682811 -0.536341 0.496093 139 131 148
-0.000486 -0.000827 0.000669 -0.682811 -0.536341 0.496093 139 131 148
-0.000635 -0.000448 0.000874 -0.682811 -0.536341 0.496093 139 131 148
-0.000486 -0.000827 0.000669 -0.177646 -0.818244 0.546735 139 131 148
-0.000263 -0.001081 0.000362 -0.177646 -0.818244 0.546735 139 131 148
0.000000 -0.001081 0.000448 -0.177646 -0.818244 0.546735 139 131 148
-0.000486 0.000827 0.000669 -0.177645 0.818243 0.546736 139 131 148
0.000000 0.000827 0.000827 -0.177645 0.818243 0.546736 139 131 148
0.000000 0.001081 0.000448 -0.177645 0.818243 0.546736 139 131 148
-0.000688 0.000000 0.000946 -0.303632 0.185877 0.934482 139 131 148
0.000000 0.000000 0.001170 -0.303632 0.185877 0.934482 139 131 148
0.000000 0.000448 0.001081 -0.303632 0.185877 0.934482 139 131 148
-0.000635 -0.000448 0.000874 -0.260811 -0.536339 0.802694 139 131 148
-0.000486 -0.000827 0.000669 -0.260811 -0.536339 0.802694 139 131 148
0.000000 -0.000827 0.000827 -0.260811 -0.536339 0.802694 139 131 148
-0.000635 0.000448 0.000874 -0.260814 0.536344 0.802690 139 131 148
0.000000 0.000448 0.001081 -0.260814 0.536344 0.802690 139 131 148
0.000000 0.000827 0.000827 -0.260814 0.536344 0.802690 139 131 148
-0.000688 0.000000 0.000946 -0.303636 -0.185883 0.934480 139 131 148
-0.000635 -0.000448 0.000874 -0.303636 -0.185883 0.934480 139 131 148
0.000000 -0.000448 0.001081 -0.303636 -0.185883 0.934480 139 131 148
3 0 1 2
3 3 4 5
3 6 7 8
3 9 10 11
3 12 13 14
3 15 16 17
3 18 19 20
3 21 22 23
3 24 25 26
3 27 28 29
3 30 31 32
3 33 34 35
3 36 37 38
3 39 40 41
3 42 43 44
3 45 46 47
3 48 49 50
3 51 52 53
3 54 55 56
3 57 58 59
3 60 61 62
3 63 64 65
3 66 67 68
3 69 70 71
3 72 73 74
3 75 76 77
3 78 79 80
3 81 82 83
3 84 85 86
3 87 88 89
3 90 91 92
3 93 94 95
3 96 97 98
3 99 100 101
3 102 103 104
3 105 106 107
3 108 109 110
3 111 112 113
3 114 115 116
3 117 118 119
3 120 121 122
3 123 124 125
3 126 127 128
3 129 130 131
3 132 133 134
3 135 136 137
3 138 139 140
3 141 142 143
3 144 145 146
3 147 148 149
3 150 151 152
3 153 154 155
3 156 157 158
3 159 160 161
3 162 163 164
3 165 166 167
3 168 169 170
3 171 172 173
3 174 175 176
3 177 178 179
3 180 181 182
3 183 184 185
3 186 187 188
3 189 190 191
3 192 193 194
3 195 196 197
3 198 199 200
3 201 202 203
3 204 205 206
3 207 208 209
3 210 211 212
3 213 214 215
3 216 217 218
3 219 220 221
3 222 223 224
3 225 226 227
3 228 229 230
3 231 232 233
3 234 235 236
3 237 238 239
3 240 241 242
3 243 244 245
3 246 247 248
3 249 250 251
3 252 253 254
3 255 256 257
3 258 259 260
3 27 261 28
3 262 263 264
3 265 266 267
3 36 268 37
3 269 270 271
3 48 272 49
3 51 273 52
3 54 274 55
3 63 275 64
3 66 276 67
3 69 277 70
3 278 279 280
3 281 282 283
3 284 285 286
3 287 288 289
3 290 291 292
3 293 294 295
3 296 297 298
3 299 300 301
3 302 303 304
3 305 306 307
3 308 309 310
3 114 311 115
3 312 313 314
3 315 316 317
3 318 319 320
3 321 322 323
3 324 325 326
3 141 327 142
3 328 329 330
3 331 332 333
3 334 335 336
3 337 338 339
3 340 341 342
3 343 344 345
3 168 346 169
3 177 347 178
3 180 348 181
3 183 349 184
3 186 350 187
3 189 351 190
3 352 353 354
3 355 356 357
3 358 359 360
3 361 362 363
3 364 365 366
3 367 368 369
3 370 371 372
3 373 374 375
3 376 377 378
3 379 380 381
3 382 383 384
3 385 386 387
