ply
format ascii 1.0
comment Created by Blender 2.79 (sub 0) - www.blender.org, source file: ''
element vertex 354
property float x
property float y
property float z
property float nx
property float ny
property float nz
property uchar red
property uchar green
property uchar blue
element face 576
property list uchar uint vertex_indices
end_header
-1.082532 0.625000 0.000000 0.000000 -0.000000 1.000000 163 125 50
-1.123905 0.465537 0.000000 0.000000 -0.000000 1.000000 163 125 50
-1.053525 0.608253 0.000000 0.000000 -0.000000 1.000000 163 125 50
-1.154849 0.478354 0.000000 0.000000 -0.000000 1.000000 163 125 50
-1.175055 0.314855 0.000000 0.000000 -0.000000 1.000000 163 125 50
-1.239306 0.163158 0.000000 0.000000 -0.000000 1.000000 163 125 50
-1.206099 0.158786 0.000000 0.000000 -0.000000 1.000000 163 125 50
-1.216506 0.000000 0.000000 -0.000000 0.000000 1.000000 163 125 50
-1.250000 0.000000 0.000000 -0.000000 0.000000 1.000000 163 125 50
-1.239306 -0.163158 0.000000 0.000000 -0.000000 1.000000 163 125 50
-1.206099 -0.158786 0.000000 0.000000 -0.000000 1.000000 163 125 50
-1.175055 -0.314855 0.000000 -0.000000 -0.000000 1.000000 163 125 50
-1.207407 -0.323524 0.000000 -0.000000 -0.000000 1.000000 163 125 50
-1.154850 -0.478354 0.000000 -0.000000 0.000000 1.000000 163 125 50
-1.053526 -0.608253 0.000000 0.000000 0.000000 1.000000 163 125 50
-1.123906 -0.465536 0.000000 0.000000 0.000000 1.000000 163 125 50
-1.082532 -0.625000 0.000000 0.000000 0.000000 1.000000 163 125 50
-0.965119 -0.740562 0.000000 0.000000 0.000000 1.000000 163 125 50
-0.991692 -0.760952 0.000000 0.000000 0.000000 1.000000 163 125 50
-0.860200 -0.860200 0.000000 0.000000 0.000000 1.000000 163 125 50
-0.883884 -0.883883 0.000000 0.000000 0.000000 1.000000 163 125 50
-0.740563 -0.965119 0.000000 0.000000 0.000000 1.000000 163 125 50
-0.760952 -0.991691 0.000000 0.000000 0.000000 1.000000 163 125 50
-0.608253 -1.053526 0.000000 0.000000 0.000000 1.000000 163 125 50
-0.625000 -1.082532 0.000000 0.000000 0.000000 1.000000 163 125 50
-0.465537 -1.123905 0.000000 0.000000 0.000000 1.000000 163 125 50
-0.314855 -1.175055 0.000000 -0.000000 -0.000000 1.000000 163 125 50
-0.478354 -1.154849 0.000000 -0.000000 -0.000000 1.000000 163 125 50
-0.323524 -1.207407 0.000000 -0.000000 -0.000000 1.000000 163 125 50
-0.158787 -1.206099 0.000000 0.000000 0.000000 1.000000 163 125 50
0.000000 -1.216506 0.000000 0.000000 -0.000000 1.000000 163 125 50
-0.163158 -1.239306 0.000000 0.000000 -0.000000 1.000000 163 125 50
0.000000 -1.250000 0.000000 0.000000 -0.000000 1.000000 163 125 50
0.158786 -1.206099 0.000000 0.000000 -0.000000 1.000000 163 125 50
0.163158 -1.239306 0.000000 0.000000 -0.000000 1.000000 163 125 50
0.314854 -1.175055 0.000000 -0.000000 0.000000 1.000000 163 125 50
0.478355 -1.154849 0.000000 0.000000 0.000000 1.000000 163 125 50
0.465537 -1.123905 0.000000 0.000000 0.000000 1.000000 163 125 50
0.625000 -1.082532 0.000000 0.000000 -0.000000 1.000000 163 125 50
0.740562 -0.965120 0.000000 0.000000 -0.000000 1.000000 163 125 50
0.760952 -0.991692 0.000000 0.000000 -0.000000 1.000000 163 125 50
0.860199 -0.860200 0.000000 -0.000000 0.000000 1.000000 163 125 50
0.883883 -0.883884 0.000000 -0.000000 0.000000 1.000000 163 125 50
0.965119 -0.740562 0.000000 -0.000000 0.000000 1.000000 163 125 50
1.053525 -0.608253 0.000000 0.000000 -0.000000 1.000000 163 125 50
0.991692 -0.760952 0.000000 0.000000 -0.000000 1.000000 163 125 50
1.082532 -0.625000 0.000000 0.000000 -0.000000 1.000000 163 125 50
1.123905 -0.465537 0.000000 0.000000 -0.000000 1.000000 163 125 50
1.154849 -0.478355 0.000000 0.000000 -0.000000 1.000000 163 125 50
1.175055 -0.314855 0.000000 -0.000000 0.000000 1.000000 163 125 50
1.207407 -0.323523 0.000000 -0.000000 0.000000 1.000000 163 125 50
1.206099 -0.158786 0.000000 -0.000000 0.000000 1.000000 163 125 50
1.239306 -0.163158 0.000000 -0.000000 0.000000 1.000000 163 125 50
1.216506 0.000000 0.000000 -0.000000 0.000000 1.000000 164 126 50
1.206099 0.158786 0.000000 0.000000 0.000000 1.000000 163 125 50
1.250000 0.000000 0.000000 0.000000 0.000000 1.000000 163 125 50
1.239306 0.163158 0.000000 0.000000 0.000000 1.000000 163 125 50
1.175055 0.314855 0.000000 -0.000000 -0.000000 1.000000 163 125 50
1.123905 0.465537 0.000000 0.000000 0.000000 1.000000 163 125 50
1.207407 0.323524 0.000000 0.000000 0.000000 1.000000 163 125 50
1.154849 0.478354 0.000000 0.000000 0.000000 1.000000 163 125 50
1.053525 0.608253 0.000000 0.000000 0.000000 1.000000 163 125 50
1.082532 0.625000 0.000000 0.000000 0.000000 1.000000 163 125 50
0.991692 0.760952 0.000000 -0.000000 0.000000 1.000000 163 125 50
0.965119 0.740562 0.000000 -0.000000 0.000000 1.000000 163 125 50
0.860200 0.860200 0.000000 -0.000000 -0.000000 1.000000 163 125 50
0.883883 0.883884 0.000000 -0.000000 -0.000000 1.000000 163 125 50
0.740562 0.965119 0.000000 -0.000000 -0.000000 1.000000 163 125 50
0.608253 1.053525 0.000000 0.000000 0.000000 1.000000 163 125 50
0.760952 0.991691 0.000000 0.000000 0.000000 1.000000 163 125 50
0.625000 1.082532 0.000000 0.000000 0.000000 1.000000 163 125 50
0.465537 1.123905 0.000000 -0.000000 -0.000000 1.000000 163 125 50
0.478355 1.154849 0.000000 -0.000000 -0.000000 1.000000 163 125 50
0.314855 1.175055 0.000000 -0.000000 -0.000000 1.000000 163 125 50
0.323524 1.207407 0.000000 0.000000 -0.000000 1.000000 163 125 50
0.158786 1.206099 0.000000 0.000000 -0.000000 1.000000 163 125 50
0.163158 1.239306 0.000000 0.000000 -0.000000 1.000000 163 125 50
0.000000 1.216506 0.000000 0.000000 -0.000000 1.000000 163 125 50
-0.163158 1.239306 0.000000 -0.000000 -0.000000 1.000000 163 125 50
-0.158786 1.206099 0.000000 -0.000000 -0.000000 1.000000 163 125 50
0.000000 1.125000 0.000000 -0.000000 -0.000000 1.000000 255 195 78
-0.146842 1.115375 0.000000 -0.000000 -0.000000 1.000000 255 195 78
0.000000 1.000000 0.000000 -0.000000 -0.000000 1.000000 255 195 78
-0.130526 0.991445 0.000000 -0.000000 -0.000000 1.000000 255 195 78
-0.114211 0.867514 0.000000 0.000000 -0.000000 1.000000 145 129 97
0.000000 0.875000 0.000000 0.000000 -0.000000 1.000000 145 129 97
0.000000 0.783494 0.000000 0.000000 0.000000 1.000000 79 72 57
-0.102267 0.776791 0.000000 0.000000 0.000000 1.000000 79 72 57
0.000000 0.750000 0.000000 0.000000 0.000000 1.000000 79 72 57
-0.314855 1.175055 0.000000 -0.000000 0.000000 1.000000 163 125 50
-0.323524 1.207407 0.000000 -0.000000 0.000000 1.000000 163 125 50
-0.465537 1.123905 0.000000 -0.000000 0.000000 1.000000 163 125 50
-0.478354 1.154849 0.000000 -0.000000 0.000000 1.000000 163 125 50
-0.608253 1.053526 0.000000 -0.000000 0.000000 1.000000 163 125 50
-0.625000 1.082532 0.000000 -0.000000 0.000000 1.000000 163 125 50
-0.740562 0.965119 0.000000 0.000000 -0.000000 1.000000 163 125 50
-0.760952 0.991692 0.000000 0.000000 -0.000000 1.000000 163 125 50
-0.860200 0.860200 0.000000 0.000000 -0.000000 1.000000 163 125 50
-0.965119 0.740562 0.000000 -0.000000 0.000000 1.000000 163 125 50
-0.883884 0.883883 0.000000 -0.000000 0.000000 1.000000 163 125 50
-0.991692 0.760952 0.000000 -0.000000 0.000000 1.000000 163 125 50
-0.974278 0.562500 0.000000 0.000000 -0.000000 1.000000 255 195 78
-0.892522 0.684857 0.000000 0.000000 -0.000000 1.000000 255 195 78
-0.974278 0.562500 0.000000 -0.000000 0.000000 -1.000000 255 195 78
-0.793353 0.608761 0.000000 -0.000000 0.000000 -1.000000 255 195 78
-0.866025 0.500000 0.000000 -0.000000 0.000000 -1.000000 255 195 78
-0.757772 0.437500 0.000000 0.000000 0.000000 -1.000000 145 129 97
-0.621587 0.476961 0.000000 -0.000000 0.000000 -1.000000 79 72 57
-0.678525 0.391747 0.000000 -0.000000 0.000000 -1.000000 79 72 57
-0.649519 0.375000 0.000000 0.000000 0.000000 -1.000000 79 72 57
-0.554014 0.554013 0.000000 0.000000 0.000000 -1.000000 79 72 57
-0.595015 0.456571 0.000000 0.000000 0.000000 -1.000000 79 72 57
-0.476961 0.621587 0.000000 0.000000 0.000000 -1.000000 79 72 57
-0.530330 0.530330 0.000000 0.000000 0.000000 -1.000000 79 72 57
-0.391747 0.678525 0.000000 0.000000 0.000000 -1.000000 79 72 57
-0.456571 0.595015 0.000000 0.000000 0.000000 -1.000000 79 72 57
-0.299830 0.723854 0.000000 0.000000 0.000000 -1.000000 80 72 57
-0.375000 0.649519 0.000000 0.000000 0.000000 -1.000000 79 72 57
-0.202783 0.756797 0.000000 0.000000 0.000000 -1.000000 79 72 57
-0.287013 0.692910 0.000000 0.000000 0.000000 -1.000000 79 72 57
-0.202783 0.756797 0.000000 0.000000 0.000000 1.000000 79 72 57
-0.097895 0.743584 0.000000 0.000000 0.000000 1.000000 79 72 57
0.097895 0.743584 0.000000 0.000000 0.000000 1.000000 79 72 57
0.102266 0.776791 0.000000 0.000000 0.000000 1.000000 80 73 56
0.194114 0.724444 0.000000 0.000000 0.000000 1.000000 79 72 57
0.202783 0.756797 0.000000 0.000000 0.000000 1.000000 79 72 57
0.287013 0.692910 0.000000 0.000000 0.000000 1.000000 79 72 57
0.299830 0.723854 0.000000 0.000000 0.000000 1.000000 81 74 56
0.375000 0.649519 0.000000 0.000000 0.000000 1.000000 79 72 57
0.391747 0.678525 0.000000 0.000000 0.000000 1.000000 81 74 56
0.456571 0.595015 0.000000 0.000000 0.000000 1.000000 79 72 57
0.476961 0.621587 0.000000 0.000000 0.000000 1.000000 79 72 57
0.530330 0.530330 0.000000 0.000000 0.000000 1.000000 79 72 57
0.554014 0.554014 0.000000 0.000000 0.000000 1.000000 79 72 57
0.595015 0.456571 0.000000 0.000000 0.000000 1.000000 79 72 57
0.621587 0.476961 0.000000 0.000000 0.000000 1.000000 81 73 56
0.649519 0.375000 0.000000 0.000000 0.000000 1.000000 79 72 57
0.678525 0.391747 0.000000 0.000000 0.000000 1.000000 82 74 56
0.692910 0.287013 0.000000 0.000000 0.000000 1.000000 79 72 57
0.723854 0.299830 0.000000 0.000000 0.000000 1.000000 79 72 57
0.756797 0.202783 0.000000 -0.000000 -0.000000 1.000000 79 72 57
0.724444 0.194114 0.000000 -0.000000 -0.000000 1.000000 79 72 57
0.743584 0.097895 0.000000 0.000000 -0.000000 1.000000 79 72 57
0.776791 0.102266 0.000000 0.000000 -0.000000 1.000000 79 72 57
0.783494 0.000000 0.000000 -0.000000 -0.000000 1.000000 79 72 57
0.750000 0.000000 0.000000 -0.000000 -0.000000 1.000000 79 72 57
0.743584 -0.097895 0.000000 0.000000 -0.000000 1.000000 79 72 57
0.776791 -0.102266 0.000000 0.000000 -0.000000 1.000000 79 72 57
0.756797 -0.202783 0.000000 -0.000000 0.000000 1.000000 79 72 57
0.724444 -0.194114 0.000000 -0.000000 0.000000 1.000000 79 72 57
0.692910 -0.287013 0.000000 0.000000 -0.000000 1.000000 79 72 57
0.723854 -0.299830 0.000000 0.000000 -0.000000 1.000000 81 73 56
0.649519 -0.375000 0.000000 0.000000 -0.000000 1.000000 79 72 57
0.678525 -0.391747 0.000000 0.000000 -0.000000 1.000000 79 72 57
0.595015 -0.456571 0.000000 0.000000 -0.000000 1.000000 79 72 57
0.621587 -0.476961 0.000000 0.000000 -0.000000 1.000000 79 72 57
0.530330 -0.530330 0.000000 0.000000 -0.000000 1.000000 79 72 57
0.554013 -0.554014 0.000000 0.000000 -0.000000 1.000000 79 72 57
0.456571 -0.595015 0.000000 0.000000 -0.000000 1.000000 79 72 57
0.476961 -0.621587 0.000000 0.000000 -0.000000 1.000000 79 72 57
0.375000 -0.649519 0.000000 0.000000 -0.000000 1.000000 79 72 57
0.391747 -0.678525 0.000000 0.000000 -0.000000 1.000000 80 73 57
0.287013 -0.692910 0.000000 0.000000 -0.000000 1.000000 79 72 57
0.299830 -0.723854 0.000000 0.000000 -0.000000 1.000000 84 75 56
0.194114 -0.724444 0.000000 0.000000 -0.000000 1.000000 79 72 57
0.202783 -0.756797 0.000000 0.000000 -0.000000 1.000000 86 77 55
0.102266 -0.776791 0.000000 -0.000000 0.000000 1.000000 79 72 57
0.097895 -0.743584 0.000000 -0.000000 0.000000 1.000000 79 72 57
0.000000 -0.750000 0.000000 -0.000000 -0.000000 1.000000 79 72 57
0.000000 -0.783494 0.000000 -0.000000 -0.000000 1.000000 79 72 57
-0.102267 -0.776791 0.000000 0.000000 0.000000 1.000000 79 72 57
-0.097895 -0.743584 0.000000 0.000000 0.000000 1.000000 79 72 57
-0.194115 -0.724444 0.000000 -0.000000 0.000000 1.000000 79 72 57
-0.202783 -0.756797 0.000000 -0.000000 0.000000 1.000000 79 72 57
-0.287013 -0.692910 0.000000 -0.000000 0.000000 1.000000 79 72 57
-0.299830 -0.723854 0.000000 -0.000000 0.000000 1.000000 79 72 57
-0.375000 -0.649519 0.000000 -0.000000 0.000000 1.000000 79 72 57
-0.391747 -0.678525 0.000000 -0.000000 0.000000 1.000000 80 73 56
-0.456571 -0.595015 0.000000 -0.000000 0.000000 1.000000 79 72 57
-0.476961 -0.621587 0.000000 -0.000000 0.000000 1.000000 79 72 57
-0.530330 -0.530330 0.000000 -0.000000 0.000000 1.000000 79 72 57
-0.554014 -0.554013 0.000000 -0.000000 0.000000 1.000000 79 72 57
-0.595015 -0.456571 0.000000 -0.000000 0.000000 1.000000 79 72 57
-0.621587 -0.476961 0.000000 -0.000000 0.000000 1.000000 79 72 57
-0.649519 -0.375000 0.000000 -0.000000 0.000000 1.000000 79 72 57
-0.678525 -0.391747 0.000000 -0.000000 0.000000 1.000000 79 72 57
-0.723854 -0.299830 0.000000 0.000000 0.000000 1.000000 79 72 57
-0.692910 -0.287012 0.000000 0.000000 0.000000 1.000000 79 72 57
-0.724444 -0.194114 0.000000 -0.000000 0.000000 1.000000 79 72 57
-0.756797 -0.202783 0.000000 -0.000000 0.000000 1.000000 79 72 57
-0.743584 -0.097895 0.000000 -0.000000 0.000000 1.000000 79 72 57
-0.776791 -0.102267 0.000000 -0.000000 0.000000 1.000000 79 72 57
-0.750000 0.000000 0.000000 0.000000 0.000000 1.000000 79 72 57
-0.783494 0.000000 0.000000 0.000000 0.000000 1.000000 79 72 57
-0.743584 0.097895 0.000000 0.000000 0.000000 1.000000 79 72 57
-0.776791 0.102267 0.000000 0.000000 0.000000 1.000000 79 72 57
-0.724444 0.194114 0.000000 0.000000 0.000000 1.000000 79 72 57
-0.756797 0.202783 0.000000 0.000000 0.000000 1.000000 79 72 57
-0.692910 0.287013 0.000000 0.000000 0.000000 1.000000 79 72 57
-0.723854 0.299830 0.000000 0.000000 0.000000 1.000000 79 72 57
-0.723854 0.299830 0.000000 0.000000 -0.000000 -1.000000 79 72 57
-0.808395 0.334848 0.000000 0.000000 0.000000 -1.000000 145 129 97
-0.923880 0.382683 0.000000 -0.000000 0.000000 -1.000000 255 195 78
-1.039364 0.430519 0.000000 -0.000000 0.000000 -1.000000 255 195 78
-1.086667 0.291171 0.000000 0.000000 0.000000 1.000000 255 195 78
-1.039364 0.430519 0.000000 0.000000 0.000000 1.000000 255 195 78
-0.965926 0.258819 0.000000 0.000000 0.000000 -1.000000 255 195 78
-1.086667 0.291171 0.000000 0.000000 0.000000 -1.000000 255 195 78
-0.845185 0.226467 0.000000 -0.000000 0.000000 -1.000000 145 129 97
-0.845185 0.226467 0.000000 0.000000 -0.000000 1.000000 145 129 97
-0.867514 0.114211 0.000000 -0.000000 0.000000 1.000000 145 129 97
-0.965926 0.258819 0.000000 -0.000000 0.000000 1.000000 255 195 78
-0.991445 0.130526 0.000000 -0.000000 0.000000 1.000000 255 195 78
-1.115375 0.146842 0.000000 0.000000 0.000000 1.000000 255 195 78
-1.125000 0.000000 0.000000 -0.000000 0.000000 1.000000 255 195 78
-1.000000 0.000000 0.000000 -0.000000 0.000000 1.000000 255 195 78
-0.875000 0.000000 0.000000 0.000000 -0.000000 1.000000 145 129 97
-0.867514 -0.114211 0.000000 0.000000 0.000000 1.000000 145 129 97
-0.991445 -0.130526 0.000000 -0.000000 -0.000000 1.000000 255 195 78
-1.115375 -0.146842 0.000000 0.000000 0.000000 1.000000 255 195 78
-1.086667 -0.291171 0.000000 -0.000000 -0.000000 1.000000 255 195 78
-0.795495 0.795495 0.000000 0.000000 0.000000 1.000000 249 191 76
-0.795495 0.795495 0.000000 0.000000 0.000000 -1.000000 249 191 76
-0.892522 0.684857 0.000000 0.000000 0.000000 -1.000000 255 195 78
-0.707107 0.707107 0.000000 0.000000 0.000000 -1.000000 255 195 78
-0.694184 0.532666 0.000000 0.000000 0.000000 -1.000000 145 129 97
-0.618719 0.618718 0.000000 0.000000 0.000000 -1.000000 145 129 97
-0.532666 0.694184 0.000000 0.000000 -0.000000 -1.000000 145 129 97
-0.608761 0.793353 0.000000 0.000000 -0.000000 -1.000000 255 195 78
-0.684857 0.892522 0.000000 0.000000 0.000000 -1.000000 255 195 78
-0.562500 0.974279 0.000000 0.000000 -0.000000 1.000000 255 195 78
-0.684857 0.892522 0.000000 0.000000 -0.000000 1.000000 255 195 78
-0.562500 0.974279 0.000000 0.000000 0.000000 -1.000000 255 195 78
-0.437500 0.757772 0.000000 0.000000 -0.000000 -1.000000 145 129 97
-0.500000 0.866026 0.000000 0.000000 -0.000000 -1.000000 255 195 78
-0.382684 0.923880 0.000000 0.000000 0.000000 -1.000000 255 195 78
-0.430519 1.039364 0.000000 0.000000 -0.000000 -1.000000 255 195 78
-0.430519 1.039364 0.000000 -0.000000 0.000000 1.000000 255 195 78
-0.291171 1.086667 0.000000 0.000000 -0.000000 1.000000 255 195 78
-0.258819 0.965926 0.000000 0.000000 -0.000000 1.000000 255 195 78
-0.226467 0.845185 0.000000 0.000000 -0.000000 -1.000000 145 129 97
-0.258819 0.965926 0.000000 0.000000 -0.000000 -1.000000 255 195 78
-0.334848 0.808395 0.000000 0.000000 0.000000 -1.000000 145 129 97
-0.226467 0.845185 0.000000 0.000000 0.000000 1.000000 145 129 97
0.114210 0.867514 0.000000 0.000000 -0.000000 1.000000 145 129 97
0.130526 0.991445 0.000000 0.000000 -0.000000 1.000000 255 195 78
0.146842 1.115376 0.000000 0.000000 0.000000 1.000000 255 195 78
0.258819 0.965926 0.000000 -0.000000 0.000000 1.000000 255 195 78
0.226467 0.845185 0.000000 0.000000 -0.000000 1.000000 145 129 97
0.334848 0.808394 0.000000 0.000000 -0.000000 1.000000 145 129 97
0.500000 0.866025 0.000000 0.000000 0.000000 1.000000 255 195 78
0.382684 0.923879 0.000000 0.000000 0.000000 1.000000 255 195 78
0.430519 1.039364 0.000000 0.000000 -0.000000 1.000000 255 195 78
0.291171 1.086667 0.000000 0.000000 0.000000 1.000000 249 191 75
0.684857 0.892522 0.000000 -0.000000 0.000000 1.000000 255 195 78
0.562500 0.974279 0.000000 -0.000000 0.000000 1.000000 255 195 78
0.608762 0.793353 0.000000 0.000000 -0.000000 1.000000 255 195 78
0.532666 0.694184 0.000000 0.000000 0.000000 1.000000 145 129 97
0.437500 0.757772 0.000000 0.000000 0.000000 1.000000 145 129 97
0.618718 0.618719 0.000000 -0.000000 -0.000000 1.000000 145 129 97
0.707107 0.707107 0.000000 0.000000 0.000000 1.000000 255 195 78
0.795495 0.795495 0.000000 0.000000 -0.000000 1.000000 255 195 78
0.793353 0.608761 0.000000 -0.000000 0.000000 1.000000 255 195 78
0.694184 0.532666 0.000000 -0.000000 -0.000000 1.000000 151 127 85
0.757772 0.437500 0.000000 0.000000 0.000000 1.000000 145 129 97
0.866025 0.500000 0.000000 0.000000 -0.000000 1.000000 255 195 78
0.892523 0.684856 0.000000 0.000000 -0.000000 1.000000 245 188 74
0.974279 0.562500 0.000000 0.000000 -0.000000 1.000000 249 190 77
1.039364 0.430519 0.000000 -0.000000 0.000000 1.000000 233 177 71
1.086667 0.291171 0.000000 -0.000000 0.000000 1.000000 255 195 78
0.923880 0.382683 0.000000 -0.000000 -0.000000 1.000000 255 195 78
0.808395 0.334848 0.000000 0.000000 -0.000000 1.000000 145 129 97
0.845185 0.226467 0.000000 0.000000 0.000000 1.000000 145 129 97
0.965926 0.258819 0.000000 -0.000000 -0.000000 1.000000 255 195 78
1.115376 0.146842 0.000000 0.000000 -0.000000 1.000000 255 195 78
0.991445 0.130526 0.000000 -0.000000 0.000000 1.000000 255 195 78
0.867514 0.114210 0.000000 -0.000000 -0.000000 1.000000 145 129 97
0.875000 0.000000 0.000000 0.000000 -0.000000 1.000000 145 129 97
1.000000 0.000000 0.000000 0.000000 -0.000000 1.000000 255 195 78
1.125000 0.000000 0.000000 -0.000000 -0.000000 1.000000 255 195 78
1.115376 -0.146842 0.000000 -0.000000 0.000000 1.000000 255 195 78
0.991445 -0.130526 0.000000 -0.000000 0.000000 1.000000 255 195 78
0.867514 -0.114210 0.000000 0.000000 -0.000000 1.000000 145 129 97
0.845185 -0.226466 0.000000 0.000000 0.000000 1.000000 145 129 97
0.965926 -0.258819 0.000000 -0.000000 0.000000 1.000000 255 195 78
1.086667 -0.291171 0.000000 -0.000000 0.000000 1.000000 255 195 78
0.923879 -0.382684 0.000000 0.000000 0.000000 1.000000 255 195 78
0.808394 -0.334848 0.000000 -0.000000 0.000000 1.000000 145 129 97
0.757772 -0.437500 0.000000 0.000000 -0.000000 1.000000 145 129 97
0.866025 -0.500000 0.000000 0.000000 -0.000000 1.000000 255 195 78
0.974279 -0.562500 0.000000 -0.000000 0.000000 1.000000 255 195 78
1.039364 -0.430519 0.000000 0.000000 0.000000 1.000000 255 195 78
0.892523 -0.684856 0.000000 0.000000 0.000000 1.000000 255 195 78
0.793353 -0.608761 0.000000 0.000000 0.000000 1.000000 255 195 78
0.694184 -0.532666 0.000000 -0.000000 0.000000 1.000000 145 129 97
0.707106 -0.707107 0.000000 -0.000000 0.000000 1.000000 255 195 78
0.618718 -0.618719 0.000000 -0.000000 0.000000 1.000000 145 129 97
0.795495 -0.795496 0.000000 0.000000 -0.000000 1.000000 255 195 78
0.684856 -0.892523 0.000000 0.000000 -0.000000 1.000000 255 195 78
0.608761 -0.793353 0.000000 -0.000000 0.000000 1.000000 255 195 78
0.532666 -0.694184 0.000000 -0.000000 0.000000 1.000000 145 129 97
0.437500 -0.757772 0.000000 0.000000 -0.000000 1.000000 151 128 84
0.500000 -0.866025 0.000000 -0.000000 -0.000000 1.000000 255 195 78
0.562500 -0.974279 0.000000 -0.000000 0.000000 1.000000 255 195 78
0.608253 -1.053525 0.000000 0.000000 -0.000000 1.000000 163 125 50
0.382684 -0.923879 0.000000 0.000000 0.000000 1.000000 255 195 78
0.334848 -0.808394 0.000000 -0.000000 0.000000 1.000000 145 129 97
0.226466 -0.845185 0.000000 -0.000000 -0.000000 1.000000 145 129 97
0.258819 -0.965926 0.000000 -0.000000 -0.000000 1.000000 255 195 78
0.430519 -1.039364 0.000000 -0.000000 -0.000000 1.000000 255 195 78
0.291171 -1.086667 0.000000 -0.000000 -0.000000 1.000000 255 195 78
0.146842 -1.115376 0.000000 -0.000000 0.000000 1.000000 255 195 78
0.130526 -0.991445 0.000000 -0.000000 0.000000 1.000000 255 195 78
0.114210 -0.867514 0.000000 -0.000000 -0.000000 1.000000 145 129 97
0.000000 -0.875000 0.000000 -0.000000 -0.000000 1.000000 145 129 97
0.000000 -1.000000 0.000000 -0.000000 -0.000000 1.000000 255 195 78
0.000000 -1.125000 0.000000 -0.000000 -0.000000 1.000000 255 195 78
-0.146843 -1.115375 0.000000 0.000000 0.000000 1.000000 255 195 78
-0.130527 -0.991445 0.000000 0.000000 0.000000 1.000000 255 195 78
-0.114211 -0.867514 0.000000 0.000000 0.000000 1.000000 145 129 97
-0.226467 -0.845185 0.000000 0.000000 -0.000000 1.000000 145 129 97
-0.258819 -0.965926 0.000000 0.000000 0.000000 1.000000 255 195 78
-0.291172 -1.086666 0.000000 -0.000000 0.000000 1.000000 255 195 78
-0.430519 -1.039364 0.000000 -0.000000 0.000000 1.000000 255 195 78
-0.382684 -0.923880 0.000000 -0.000000 0.000000 1.000000 254 194 78
-0.334848 -0.808395 0.000000 -0.000000 0.000000 1.000000 145 129 97
-0.437500 -0.757772 0.000000 0.000000 -0.000000 1.000000 145 129 97
-0.500000 -0.866026 0.000000 -0.000000 0.000000 1.000000 255 195 78
-0.562500 -0.974279 0.000000 0.000000 0.000000 1.000000 255 195 78
-0.684857 -0.892522 0.000000 -0.000000 0.000000 1.000000 255 195 78
-0.608762 -0.793353 0.000000 0.000000 0.000000 1.000000 255 195 78
-0.532667 -0.694184 0.000000 0.000000 0.000000 1.000000 145 129 97
-0.707107 -0.707107 0.000000 0.000000 0.000000 1.000000 254 194 78
-0.618719 -0.618718 0.000000 0.000000 0.000000 1.000000 145 129 97
-0.795495 -0.795495 0.000000 0.000000 0.000000 1.000000 255 195 78
-0.793353 -0.608761 0.000000 -0.000000 0.000000 1.000000 249 190 76
-0.892522 -0.684857 0.000000 -0.000000 0.000000 1.000000 255 195 78
-0.694184 -0.532666 0.000000 -0.000000 0.000000 1.000000 145 129 97
-0.757772 -0.437500 0.000000 -0.000000 0.000000 1.000000 145 129 97
-0.866026 -0.500000 0.000000 -0.000000 0.000000 1.000000 255 195 78
-0.974279 -0.562500 0.000000 0.000000 0.000000 1.000000 255 195 78
-1.039365 -0.430518 0.000000 -0.000000 0.000000 1.000000 255 195 78
-0.923880 -0.382683 0.000000 0.000000 -0.000000 1.000000 255 195 78
-0.808395 -0.334848 0.000000 0.000000 0.000000 1.000000 145 129 97
-0.845185 -0.226467 0.000000 -0.000000 -0.000000 1.000000 145 129 97
-0.965926 -0.258819 0.000000 -0.000000 0.000000 1.000000 255 195 78
-1.207407 0.323524 0.000000 0.000000 -0.000000 1.000000 163 125 50
0.323523 -1.207407 0.000000 0.000000 0.000000 1.000000 163 125 50
0.000000 1.250000 0.000000 -0.000000 0.000000 1.000000 163 125 50
-0.194114 0.724444 0.000000 0.000000 0.000000 -1.000000 79 72 57
-0.194114 0.724444 0.000000 0.000000 0.000000 1.000000 79 72 57
-0.692910 0.287013 0.000000 0.000000 0.000000 -1.000000 79 72 57
-0.808395 0.334848 0.000000 -0.000000 0.000000 1.000000 145 129 97
-0.382684 0.923880 0.000000 0.000000 0.000000 1.000000 255 195 78
3 0 1 2
3 3 4 1
3 4 5 6
3 7 5 8
3 7 9 10
3 11 9 12
3 13 11 12
3 13 14 15
3 16 17 14
3 18 19 17
3 20 21 19
3 22 23 21
3 24 25 23
3 26 27 28
3 28 29 26
3 30 31 32
3 33 32 34
3 34 35 33
3 35 36 37
3 38 37 36
3 39 38 40
3 40 41 39
3 42 43 41
3 44 45 46
3 47 46 48
3 48 49 47
3 50 51 49
3 52 53 51
3 54 55 56
3 56 57 54
3 58 59 60
3 61 60 62
3 61 63 64
3 63 65 64
3 66 67 65
3 68 69 70
3 70 71 68
3 72 73 71
3 74 75 73
3 76 77 75
3 77 78 79
3 80 79 81
3 82 81 83
3 82 84 85
3 84 86 85
3 87 88 86
3 89 78 90
3 91 90 92
3 93 92 94
3 94 95 93
3 96 97 95
3 98 99 100
3 2 100 0
3 98 101 102
3 103 104 105
3 104 106 105
3 106 107 108
3 107 109 108
3 110 111 107
3 112 113 110
3 114 115 112
3 116 117 114
3 118 119 116
3 120 121 87
3 86 122 123
3 123 124 125
3 125 126 127
3 127 128 129
3 129 130 131
3 131 132 133
3 133 134 135
3 135 136 137
3 137 138 139
3 140 138 141
3 140 142 143
3 144 142 145
3 144 146 147
3 148 146 149
3 148 150 151
3 151 152 153
3 153 154 155
3 155 156 157
3 157 158 159
3 159 160 161
3 161 162 163
3 163 164 165
3 166 164 167
3 166 168 169
3 170 168 171
3 170 172 173
3 173 174 175
3 175 176 177
3 177 178 179
3 179 180 181
3 181 182 183
3 183 184 185
3 186 184 187
3 186 188 189
3 189 190 191
3 191 192 193
3 193 194 195
3 195 196 197
3 197 198 199
3 109 200 108
3 106 200 201
3 202 106 201
3 203 105 202
3 1 101 2
3 1 204 205
3 203 206 207
3 206 201 208
3 199 209 197
3 195 209 210
3 210 211 212
3 213 211 204
3 6 204 4
3 214 6 7
3 215 213 214
3 210 215 216
3 195 216 193
3 217 193 216
3 217 215 218
3 219 215 214
3 10 214 7
3 220 10 11
3 98 221 97
3 222 104 223
3 224 225 104
3 226 107 225
3 226 112 110
3 227 224 228
3 229 224 222
3 221 95 97
3 230 95 231
3 232 228 229
3 233 228 234
3 227 114 112
3 233 116 114
3 235 233 234
3 235 232 236
3 230 91 93
3 237 89 91
3 79 238 81
3 81 239 83
3 237 239 238
3 240 235 241
3 242 118 116
3 243 87 84
3 239 84 83
3 244 86 123
3 245 85 244
3 245 80 82
3 77 246 75
3 246 73 75
3 247 246 245
3 247 244 248
3 123 248 244
3 249 125 127
3 129 249 127
3 249 250 251
3 249 247 248
3 252 247 251
3 253 71 73
3 252 68 71
3 250 252 251
3 254 68 255
3 254 250 256
3 250 257 256
3 129 257 258
3 259 131 133
3 256 259 260
3 261 256 260
3 254 65 67
3 261 64 65
3 262 261 260
3 262 259 263
3 135 259 133
3 135 264 263
3 262 264 265
3 266 265 267
3 266 61 64
3 268 61 267
3 269 58 268
3 268 265 270
3 265 271 270
3 137 271 264
3 139 272 271
3 273 271 272
3 268 273 269
3 57 274 54
3 275 269 273
3 275 272 276
3 140 276 272
3 144 276 143
3 275 277 278
3 279 275 278
3 274 53 54
3 280 53 279
3 280 278 281
3 278 282 281
3 147 277 144
3 147 283 282
3 284 282 283
3 285 281 284
3 280 49 51
3 285 47 49
3 286 285 284
3 286 283 287
3 151 283 148
3 287 153 288
3 286 288 289
3 290 286 289
3 291 44 47
3 292 44 290
3 293 290 289
3 293 288 294
3 155 288 153
3 157 294 155
3 295 294 296
3 292 295 297
3 292 41 43
3 41 298 39
3 298 295 299
3 299 296 300
3 157 300 296
3 159 301 300
3 299 301 302
3 303 299 302
3 298 304 39
3 303 37 304
3 305 303 302
3 305 301 306
3 163 301 161
3 165 306 163
3 305 307 308
3 309 308 310
3 37 310 35
3 33 310 311
3 311 308 312
3 308 313 312
3 166 307 165
3 313 169 314
3 312 314 315
3 311 315 316
3 311 30 33
3 317 30 316
3 318 316 315
3 318 314 319
3 170 314 169
3 170 320 319
3 321 319 320
3 317 321 322
3 317 26 29
3 26 323 25
3 322 324 323
3 321 325 324
3 173 325 320
3 175 326 325
3 324 326 327
3 328 324 327
3 25 328 23
3 23 329 21
3 330 328 327
3 330 326 331
3 177 331 326
3 181 331 179
3 332 331 333
3 334 330 332
3 329 19 21
3 334 17 19
3 334 335 336
3 332 337 335
3 181 337 333
3 337 185 338
3 335 338 339
3 340 335 339
3 17 340 14
3 14 341 15
3 342 340 339
3 342 338 343
3 185 343 338
3 189 343 186
3 189 217 344
3 345 217 218
3 219 345 218
3 15 220 11
3 220 342 345
3 342 344 345
3 0 3 1
3 3 346 4
3 4 346 5
3 7 6 5
3 7 8 9
3 11 10 9
3 13 15 11
3 13 16 14
3 16 18 17
3 18 20 19
3 20 22 21
3 22 24 23
3 24 27 25
3 26 25 27
3 28 31 29
3 30 29 31
3 33 30 32
3 34 347 35
3 35 347 36
3 38 304 37
3 39 304 38
3 40 42 41
3 42 45 43
3 44 43 45
3 47 44 46
3 48 50 49
3 50 52 51
3 52 55 53
3 54 53 55
3 56 59 57
3 58 57 59
3 61 58 60
3 61 62 63
3 63 66 65
3 66 69 67
3 68 67 69
3 70 72 71
3 72 74 73
3 74 76 75
3 76 348 77
3 77 348 78
3 80 77 79
3 82 80 81
3 82 83 84
3 84 87 86
3 87 121 88
3 89 79 78
3 91 89 90
3 93 91 92
3 94 96 95
3 96 99 97
3 98 97 99
3 2 98 100
3 98 2 101
3 103 223 104
3 104 225 106
3 106 225 107
3 107 111 109
3 110 113 111
3 112 115 113
3 114 117 115
3 116 119 117
3 118 349 119
3 120 350 121
3 86 88 122
3 123 122 124
3 125 124 126
3 127 126 128
3 129 128 130
3 131 130 132
3 133 132 134
3 135 134 136
3 137 136 138
3 140 139 138
3 140 141 142
3 144 143 142
3 144 145 146
3 148 147 146
3 148 149 150
3 151 150 152
3 153 152 154
3 155 154 156
3 157 156 158
3 159 158 160
3 161 160 162
3 163 162 164
3 166 165 164
3 166 167 168
3 170 169 168
3 170 171 172
3 173 172 174
3 175 174 176
3 177 176 178
3 179 178 180
3 181 180 182
3 183 182 184
3 186 185 184
3 186 187 188
3 189 188 190
3 191 190 192
3 193 192 194
3 195 194 196
3 197 196 198
3 109 351 200
3 106 108 200
3 202 105 106
3 203 103 105
3 1 205 101
3 1 4 204
3 203 202 206
3 206 202 201
3 199 352 209
3 195 197 209
3 210 209 211
3 213 212 211
3 6 213 204
3 214 213 6
3 215 212 213
3 210 212 215
3 195 210 216
3 217 191 193
3 217 216 215
3 219 218 215
3 10 219 214
3 220 219 10
3 98 102 221
3 222 224 104
3 224 226 225
3 226 110 107
3 226 227 112
3 227 226 224
3 229 228 224
3 221 231 95
3 230 93 95
3 232 234 228
3 233 227 228
3 227 233 114
3 233 242 116
3 235 242 233
3 235 234 232
3 230 237 91
3 237 238 89
3 79 89 238
3 81 238 239
3 237 353 239
3 240 242 235
3 242 240 118
3 243 120 87
3 239 243 84
3 244 85 86
3 245 82 85
3 245 246 80
3 77 80 246
3 246 253 73
3 247 253 246
3 247 245 244
3 123 125 248
3 249 248 125
3 129 258 249
3 249 258 250
3 249 251 247
3 252 253 247
3 253 252 71
3 252 255 68
3 250 255 252
3 254 67 68
3 254 255 250
3 250 258 257
3 129 131 257
3 259 257 131
3 256 257 259
3 261 254 256
3 254 261 65
3 261 266 64
3 262 266 261
3 262 260 259
3 135 263 259
3 135 137 264
3 262 263 264
3 266 262 265
3 266 267 61
3 268 58 61
3 269 57 58
3 268 267 265
3 265 264 271
3 137 139 271
3 139 140 272
3 273 270 271
3 268 270 273
3 57 269 274
3 275 274 269
3 275 273 272
3 140 143 276
3 144 277 276
3 275 276 277
3 279 274 275
3 274 279 53
3 280 51 53
3 280 279 278
3 278 277 282
3 147 282 277
3 147 148 283
3 284 281 282
3 285 280 281
3 280 285 49
3 285 291 47
3 286 291 285
3 286 284 283
3 151 287 283
3 287 151 153
3 286 287 288
3 290 291 286
3 291 290 44
3 292 43 44
3 293 292 290
3 293 289 288
3 155 294 288
3 157 296 294
3 295 293 294
3 292 293 295
3 292 297 41
3 41 297 298
3 298 297 295
3 299 295 296
3 157 159 300
3 159 161 301
3 299 300 301
3 303 298 299
3 298 303 304
3 303 309 37
3 305 309 303
3 305 302 301
3 163 306 301
3 165 307 306
3 305 306 307
3 309 305 308
3 37 309 310
3 33 35 310
3 311 310 308
3 308 307 313
3 166 313 307
3 313 166 169
3 312 313 314
3 311 312 315
3 311 316 30
3 317 29 30
3 318 317 316
3 318 315 314
3 170 319 314
3 170 173 320
3 321 318 319
3 317 318 321
3 317 322 26
3 26 322 323
3 322 321 324
3 321 320 325
3 173 175 325
3 175 177 326
3 324 325 326
3 328 323 324
3 25 323 328
3 23 328 329
3 330 329 328
3 330 327 326
3 177 179 331
3 181 333 331
3 332 330 331
3 334 329 330
3 329 334 19
3 334 336 17
3 334 332 335
3 332 333 337
3 181 183 337
3 337 183 185
3 335 337 338
3 340 336 335
3 17 336 340
3 14 340 341
3 342 341 340
3 342 339 338
3 185 186 343
3 189 344 343
3 189 191 217
3 345 344 217
3 219 220 345
3 15 341 220
3 220 341 342
3 342 343 344
