ply
format ascii 1.0
comment Created by Blender 2.79 (sub 0) - www.blender.org, source file: ''
element vertex 113
property float x
property float y
property float z
property float nx
property float ny
property float nz
property uchar red
property uchar green
property uchar blue
element face 48
property list uchar uint vertex_indices
end_header
0.000000 0.005000 -0.000000 0.156558 0.912487 0.377965 199 175 89
-0.000000 0.003536 0.003536 0.156558 0.912487 0.377965 204 174 73
0.002500 0.003536 0.002500 0.156558 0.912487 0.377965 204 174 73
-0.000000 -0.003536 0.003536 0.357407 -0.357407 0.862856 204 174 73
0.003536 0.000000 0.003536 0.357407 -0.357407 0.862856 204 174 73
0.000000 0.000000 0.005000 0.357407 -0.357407 0.862856 204 174 73
0.000000 0.000000 0.005000 0.357407 0.357407 0.862856 204 174 73
0.002500 0.003536 0.002500 0.357407 0.357407 0.862856 204 174 73
-0.000000 0.003536 0.003536 0.357407 0.357407 0.862856 204 174 73
-0.000000 -0.003536 0.003536 0.156558 -0.912487 0.377964 204 174 73
-0.000000 -0.005000 -0.000000 0.156558 -0.912487 0.377964 204 174 73
0.002500 -0.003536 0.002500 0.156558 -0.912487 0.377964 204 174 73
0.000000 0.005000 -0.000000 0.377964 0.912487 0.156558 199 175 89
0.002500 0.003536 0.002500 0.377964 0.912487 0.156558 204 174 73
0.003536 0.003536 -0.000000 0.377964 0.912487 0.156558 201 175 81
0.003536 0.000000 0.003536 0.862856 -0.357407 0.357407 204 174 73
0.003536 -0.003536 -0.000000 0.862856 -0.357407 0.357407 204 174 74
0.005000 0.000000 -0.000000 0.862856 -0.357407 0.357407 204 174 73
0.003536 0.000000 0.003536 0.862856 0.357407 0.357407 204 174 73
0.003536 0.003536 -0.000000 0.862856 0.357407 0.357407 201 175 81
0.002500 0.003536 0.002500 0.862856 0.357407 0.357407 204 174 73
0.002500 -0.003536 0.002500 0.377964 -0.912487 0.156558 204 174 73
-0.000000 -0.005000 -0.000000 0.377964 -0.912487 0.156558 204 174 73
0.003536 -0.003536 -0.000000 0.377964 -0.912487 0.156558 204 174 74
0.000000 0.005000 -0.000000 0.377964 0.912487 -0.156558 203 175 75
0.003536 0.003536 -0.000000 0.377964 0.912487 -0.156558 204 174 73
0.002500 0.003536 -0.002500 0.377964 0.912487 -0.156558 204 174 73
0.003536 -0.003536 -0.000000 0.862856 -0.357407 -0.357407 204 174 73
0.003536 0.000000 -0.003536 0.862856 -0.357407 -0.357407 204 174 73
0.005000 0.000000 -0.000000 0.862856 -0.357407 -0.357407 204 174 73
0.003536 0.003536 -0.000000 0.862856 0.357407 -0.357407 204 174 73
0.003536 0.000000 -0.003536 0.862856 0.357407 -0.357407 204 174 73
0.002500 0.003536 -0.002500 0.862856 0.357407 -0.357407 199 175 87
0.003536 -0.003536 -0.000000 0.377964 -0.912487 -0.156558 204 174 73
-0.000000 -0.005000 -0.000000 0.377964 -0.912487 -0.156558 204 174 73
0.002500 -0.003536 -0.002500 0.377964 -0.912487 -0.156558 204 174 73
0.000000 0.005000 -0.000000 0.156558 0.912487 -0.377964 200 175 82
0.002500 0.003536 -0.002500 0.156558 0.912487 -0.377964 199 175 87
-0.000000 0.003536 -0.003536 0.156558 0.912487 -0.377964 204 174 73
0.002500 -0.003536 -0.002500 0.357407 -0.357407 -0.862856 204 174 73
-0.000000 0.000000 -0.005000 0.357407 -0.357407 -0.862856 199 176 91
0.003536 0.000000 -0.003536 0.357407 -0.357407 -0.862856 204 174 73
0.003536 0.000000 -0.003536 0.357407 0.357407 -0.862856 204 174 73
-0.000000 0.003536 -0.003536 0.357407 0.357407 -0.862856 204 174 73
0.002500 0.003536 -0.002500 0.357407 0.357407 -0.862856 199 175 87
0.002500 -0.003536 -0.002500 0.156558 -0.912487 -0.377965 204 174 73
-0.000000 -0.005000 -0.000000 0.156558 -0.912487 -0.377965 204 174 73
-0.000000 -0.003536 -0.003536 0.156558 -0.912487 -0.377965 204 174 73
-0.000000 -0.003536 -0.003536 -0.156558 -0.912487 -0.377965 207 178 82
-0.000000 -0.005000 -0.000000 -0.156558 -0.912487 -0.377965 204 174 73
-0.002500 -0.003536 -0.002500 -0.156558 -0.912487 -0.377965 204 174 73
0.000000 0.005000 -0.000000 -0.156558 0.912487 -0.377964 200 175 82
-0.000000 0.003536 -0.003536 -0.156558 0.912487 -0.377964 204 174 73
-0.002500 0.003536 -0.002500 -0.156558 0.912487 -0.377964 204 174 73
-0.000000 -0.003536 -0.003536 -0.357407 -0.357407 -0.862856 206 178 82
-0.003536 0.000000 -0.003536 -0.357407 -0.357407 -0.862856 204 174 73
-0.000000 0.000000 -0.005000 -0.357407 -0.357407 -0.862856 199 176 91
-0.000000 0.003536 -0.003536 -0.357407 0.357407 -0.862856 204 174 73
-0.003536 0.000000 -0.003536 -0.357407 0.357407 -0.862856 204 174 73
-0.002500 0.003536 -0.002500 -0.357407 0.357407 -0.862856 204 174 73
-0.003536 0.000000 -0.003536 -0.862856 0.357407 -0.357407 204 174 73
-0.003536 0.003536 -0.000000 -0.862856 0.357407 -0.357407 204 174 73
-0.002500 0.003536 -0.002500 -0.862856 0.357407 -0.357407 204 174 73
-0.002500 -0.003536 -0.002500 -0.377964 -0.912487 -0.156558 204 174 73
-0.000000 -0.005000 -0.000000 -0.377964 -0.912487 -0.156558 204 174 73
-0.003536 -0.003536 -0.000000 -0.377964 -0.912487 -0.156558 204 174 73
0.000000 0.005000 -0.000000 -0.377964 0.912487 -0.156558 200 175 82
-0.002500 0.003536 -0.002500 -0.377964 0.912487 -0.156558 204 174 73
-0.003536 0.003536 -0.000000 -0.377964 0.912487 -0.156558 204 174 73
-0.002500 -0.003536 -0.002500 -0.862856 -0.357407 -0.357407 204 174 73
-0.005000 0.000000 -0.000000 -0.862856 -0.357407 -0.357407 204 174 73
-0.003536 0.000000 -0.003536 -0.862856 -0.357407 -0.357407 204 174 73
-0.005000 0.000000 -0.000000 -0.862856 0.357407 0.357407 204 174 73
-0.002500 0.003536 0.002500 -0.862856 0.357407 0.357407 204 174 73
-0.003536 0.003536 -0.000000 -0.862856 0.357407 0.357407 204 174 73
-0.003536 -0.003536 -0.000000 -0.377964 -0.912487 0.156558 204 174 73
-0.000000 -0.005000 -0.000000 -0.377964 -0.912487 0.156558 204 174 73
-0.002500 -0.003536 0.002500 -0.377964 -0.912487 0.156558 204 174 73
0.000000 0.005000 -0.000000 -0.377964 0.912487 0.156558 203 175 75
-0.003536 0.003536 -0.000000 -0.377964 0.912487 0.156558 204 174 73
-0.002500 0.003536 0.002500 -0.377964 0.912487 0.156558 204 174 73
-0.003536 -0.003536 -0.000000 -0.862856 -0.357407 0.357407 204 174 73
-0.003536 0.000000 0.003536 -0.862856 -0.357407 0.357407 204 174 73
-0.005000 0.000000 -0.000000 -0.862856 -0.357407 0.357407 204 174 73
-0.003536 0.000000 0.003536 -0.357407 0.357407 0.862856 204 174 73
-0.000000 0.003536 0.003536 -0.357407 0.357407 0.862856 204 174 73
-0.002500 0.003536 0.002500 -0.357407 0.357407 0.862856 204 174 73
-0.002500 -0.003536 0.002500 -0.156558 -0.912487 0.377964 204 174 73
-0.000000 -0.005000 -0.000000 -0.156558 -0.912487 0.377964 204 174 73
-0.000000 -0.003536 0.003536 -0.156558 -0.912487 0.377964 204 174 73
0.000000 0.005000 -0.000000 -0.156558 0.912487 0.377965 199 175 89
-0.002500 0.003536 0.002500 -0.156558 0.912487 0.377965 204 174 73
-0.000000 0.003536 0.003536 -0.156558 0.912487 0.377965 204 174 73
-0.002500 -0.003536 0.002500 -0.357407 -0.357407 0.862856 204 174 73
0.000000 0.000000 0.005000 -0.357407 -0.357407 0.862856 204 174 73
-0.003536 0.000000 0.003536 -0.357407 -0.357407 0.862856 204 174 73
0.002500 -0.003536 0.002500 0.357407 -0.357407 0.862856 204 174 73
0.003536 0.000000 0.003536 0.357407 0.357407 0.862856 204 174 73
0.002500 -0.003536 0.002500 0.862856 -0.357407 0.357407 204 174 73
0.005000 0.000000 -0.000000 0.862856 0.357407 0.357407 204 174 73
0.002500 -0.003536 -0.002500 0.862856 -0.357407 -0.357407 204 174 73
0.005000 0.000000 -0.000000 0.862856 0.357407 -0.357407 204 174 73
-0.000000 -0.003536 -0.003536 0.357407 -0.357407 -0.862856 205 178 82
-0.000000 0.000000 -0.005000 0.357407 0.357407 -0.862856 199 176 91
-0.000000 -0.003536 -0.003536 -0.357407 -0.357407 -0.862856 205 178 82
-0.002500 -0.003536 -0.002500 -0.357407 -0.357407 -0.862856 204 174 73
-0.000000 0.000000 -0.005000 -0.357407 0.357407 -0.862856 199 176 91
-0.005000 0.000000 -0.000000 -0.862856 0.357407 -0.357407 204 174 73
-0.003536 -0.003536 -0.000000 -0.862856 -0.357407 -0.357407 204 174 73
-0.003536 0.000000 0.003536 -0.862856 0.357407 0.357407 204 174 73
-0.002500 -0.003536 0.002500 -0.862856 -0.357407 0.357407 204 174 73
0.000000 0.000000 0.005000 -0.357407 0.357407 0.862856 204 174 73
-0.000000 -0.003536 0.003536 -0.357407 -0.357407 0.862856 204 174 73
3 0 1 2
3 3 4 5
3 6 7 8
3 9 10 11
3 12 13 14
3 15 16 17
3 18 19 20
3 21 22 23
3 24 25 26
3 27 28 29
3 30 31 32
3 33 34 35
3 36 37 38
3 39 40 41
3 42 43 44
3 45 46 47
3 48 49 50
3 51 52 53
3 54 55 56
3 57 58 59
3 60 61 62
3 63 64 65
3 66 67 68
3 69 70 71
3 72 73 74
3 75 76 77
3 78 79 80
3 81 82 83
3 84 85 86
3 87 88 89
3 90 91 92
3 93 94 95
3 3 96 4
3 6 97 7
3 15 98 16
3 18 99 19
3 27 100 28
3 30 101 31
3 39 102 40
3 42 103 43
3 104 105 55
3 57 106 58
3 60 107 61
3 69 108 70
3 72 109 73
3 81 110 82
3 84 111 85
3 93 112 94
